<svg xmlns="http://www.w3.org/2000/svg" xmlns:xlink="http://www.w3.org/1999/xlink" width="200" height="100" viewBox="0 0 200 100">
  <defs>
    <clipPath id="clip-custom_1">
      <rect width="200" height="100"/>
    </clipPath>
  </defs>
  <g id="custom_1" data-name="custom – 1" clip-path="url(#clip-custom_1)">
    <path id="Path_1" data-name="Path 1" d="M117,56h0Z" transform="translate(0 25)" fill="#02c8b7"/>
    <g id="g10" transform="translate(-47.439 236.256)">
      <path id="path20" d="M322.8-142.522h11.717l1.451-6.6c3.344,0,6.8.022,10.14.022a7.654,7.654,0,0,0,4.363-1.375,7.489,7.489,0,0,0,3.142-4.633q1.1-5.024,2.214-10.047c.422-1.912.97-4.071-.4-5.8-1.261-1.589-2.934-1.712-4.771-1.712q-19.844.022-39.688,0a7.682,7.682,0,0,0-3.621,1.034,5.4,5.4,0,0,0-3.426-1.034H285.765l1.487-6.693H275.517l-1.451,6.53H263.745a7.384,7.384,0,0,0-3.99,1.215,5.816,5.816,0,0,0-3.425-1.034H222.264l1.56-6.784-11.717-.018-6.755,30.213,11.706,0,3.521-15.463h3.961c.471,0,.379.268.3.623l-3.33,14.839h77.605a7.258,7.258,0,0,0,3.533-.877,5.841,5.841,0,0,0,3.627,1.027l17.974-.151Zm-50.686-22.153h-3.454c-.606,0-.769.276-.89.82l-1.3,5.819c-.123.558.159.649.647.649h3.362Zm19.816.141h3.69c.71,0,.671.372.543.947l-1.268,5.7c-.147.664-.561.652-1.131.652h-3.755c-.552,0-.557-.326-.458-.772q.631-2.85,1.263-5.7C290.972-164.409,291.249-164.534,291.932-164.534Zm24.289,0h3.69c.71,0,.671.372.543.947l-1.268,5.7c-.147.664-.561.652-1.131.652H314.3c-.552,0-.556-.326-.458-.772q.631-2.85,1.263-5.7C315.261-164.409,315.538-164.534,316.222-164.534Zm21.661,7.355h3.454c.606,0,.769-.276.89-.82l1.3-5.819c.123-.558-.159-.649-.647-.649h-3.362l-1.633,7.288" transform="translate(-108.864 -23.156)" fill="none" fill-rule="evenodd"/>
      <path id="path22" d="M458.034-152.144h14.717A3.255,3.255,0,0,1,476-147.968l-2.622,11.836a5.523,5.523,0,0,1-5.1,4.176H453.562a3.255,3.255,0,0,1-3.251-4.176l2.622-11.836A5.523,5.523,0,0,1,458.034-152.144Zm2.668,4.752h7.277a1.722,1.722,0,0,1,1.721,2.209l-1.388,6.265a2.923,2.923,0,0,1-2.7,2.209h-7.277a1.722,1.722,0,0,1-1.72-2.209L458-145.182a2.922,2.922,0,0,1,2.7-2.209" transform="translate(-277.667 -41.981)" fill="#1f1917" fill-rule="evenodd"/>
      <path id="path24" d="M536.139-152.144h14.718a3.255,3.255,0,0,1,3.251,4.176l-2.622,11.836a5.524,5.524,0,0,1-5.1,4.176H531.667a3.255,3.255,0,0,1-3.251-4.176l2.622-11.836A5.523,5.523,0,0,1,536.139-152.144Zm2.668,4.752h7.277a1.722,1.722,0,0,1,1.72,2.209l-1.388,6.265a2.923,2.923,0,0,1-2.7,2.209H536.44a1.722,1.722,0,0,1-1.72-2.209l1.388-6.265a2.922,2.922,0,0,1,2.7-2.209" transform="translate(-331.512 -41.981)" fill="#1f1917" fill-rule="evenodd"/>
      <path id="path26" d="M608.282-152.144h17.664a3.255,3.255,0,0,1,3.251,4.176l-2.622,11.836a5.524,5.524,0,0,1-5.1,4.176l-17.664-.008Zm4.618,4.752h8.273a1.723,1.723,0,0,1,1.72,2.209l-1.388,6.265a2.924,2.924,0,0,1-2.7,2.209h-8.28" transform="translate(-383.558 -41.981)" fill="#1f1917" fill-rule="evenodd"/>
      <path id="path30" d="M397.017-132.467H379.353a3.255,3.255,0,0,1-3.251-4.176l2.622-11.836a5.523,5.523,0,0,1,5.1-4.176l17.664.008Zm-4.618-4.752h-8.273a1.722,1.722,0,0,1-1.72-2.209l1.388-6.265a2.924,2.924,0,0,1,2.7-2.209h8.281" transform="translate(-226.508 -41.629)" fill="#1f1917" fill-rule="evenodd"/>
      <path id="path34" d="M233.377-152.144h13.5a3.255,3.255,0,0,1,3.251,4.176l-1.917,8.653h-5.686l1.3-5.867a1.722,1.722,0,0,0-1.721-2.209H233.74c-1.215,0-.126.995-.395,2.209l-1.283,5.789h-5.686l1.9-8.575a5.523,5.523,0,0,1,5.1-4.176" transform="translate(-123.358 -41.981)" fill="#1f1917" fill-rule="evenodd"/>
      <path id="path36" d="M221.213-126.433l3.881-17.469h5.671l-3.887,17.469" transform="translate(-119.798 -47.663)" fill="#1f1917" fill-rule="evenodd"/>
      <path id="path42" d="M320.128-132.463h-18.88A3.255,3.255,0,0,1,298-136.639l.761-3.434h0l.146-.66a5.523,5.523,0,0,1,5.1-4.176l13.21.006.195-.877a1.711,1.711,0,0,0-1.649-2.119H300.473l1.053-4.75,18.978.005a3.251,3.251,0,0,1,3.169,4.174l-.357,1.612h0l-.434,1.956h0l-2.227,10.048h0Zm-14.675-4.752H315.51l.654-2.942h-9.886a1.451,1.451,0,0,0-.146-.008h0a1.944,1.944,0,0,0-1.8,1.472h0a1.147,1.147,0,0,0,1.119,1.472v.006" transform="translate(-172.663 -41.633)" fill="#1f1917" fill-rule="evenodd"/>
      <path id="path44" d="M458.034-152.144h14.717A3.255,3.255,0,0,1,476-147.968l-2.622,11.836a5.523,5.523,0,0,1-5.1,4.176H453.562a3.255,3.255,0,0,1-3.251-4.176l2.622-11.836A5.523,5.523,0,0,1,458.034-152.144Zm2.668,4.752h7.277a1.722,1.722,0,0,1,1.721,2.209l-1.388,6.265a2.923,2.923,0,0,1-2.7,2.209h-7.277a1.722,1.722,0,0,1-1.72-2.209L458-145.182a2.922,2.922,0,0,1,2.7-2.209" transform="translate(-277.667 -41.981)" fill="#505391" fill-rule="evenodd"/>
      <path id="path46" d="M536.139-152.144h14.718a3.255,3.255,0,0,1,3.251,4.176l-2.622,11.836a5.524,5.524,0,0,1-5.1,4.176H531.667a3.255,3.255,0,0,1-3.251-4.176l2.622-11.836A5.523,5.523,0,0,1,536.139-152.144Zm2.668,4.752h7.277a1.722,1.722,0,0,1,1.72,2.209l-1.388,6.265a2.923,2.923,0,0,1-2.7,2.209H536.44a1.722,1.722,0,0,1-1.72-2.209l1.388-6.265a2.922,2.922,0,0,1,2.7-2.209" transform="translate(-331.512 -41.981)" fill="#505391" fill-rule="evenodd"/>
      <path id="path48" d="M604.97,114.094l-3.689,16.618-.786,3.562L599,141.039h5.659l1.5-6.765,12,.01a5.517,5.517,0,0,0,5.1-4.174l2.621-11.832a3.262,3.262,0,0,0-3.252-4.183Zm4.611,4.756h8.28a1.724,1.724,0,0,1,1.718,2.213l-1.388,6.261a2.927,2.927,0,0,1-2.7,2.213h-8.28Z" transform="translate(-380.241 -308.222)" fill="#505391" fill-rule="evenodd"/>
      <path id="path52" d="M397.317,91.844l-1.5,6.765-12-.01a5.516,5.516,0,0,0-5.1,4.174l-2.63,11.842a3.254,3.254,0,0,0,3.252,4.174h17.666l4.475-20.18,1.495-6.765h-5.659Zm-10.833,11.512h8.28l-2.378,10.677h-8.27a1.717,1.717,0,0,1-1.718-2.2l1.388-6.27A2.917,2.917,0,0,1,386.484,103.356Z" transform="translate(-226.498 -292.883)" fill="#505391" fill-rule="evenodd"/>
      <path id="path56" d="M227.178,91.844l-2.291,10.328h.029l-.1.408c-.036.118-.07.238-.1.359l-1.9,8.571h.019l-1.621,7.28h5.659l1.621-7.28h.01l1.281-5.785c0-.009,0-.02,0-.029l.5-2.184h8.26a1.73,1.73,0,0,1,1.728,2.213l-1.3,5.863-1.592,7.2h5.669l1.6-7.2h.01l1.912-8.648a3.261,3.261,0,0,0-3.252-4.184H231.313l1.534-6.911h-5.669Z" transform="translate(-119.802 -292.883)" fill="#505391" fill-rule="evenodd"/>
      <path id="path64" d="M320.128-132.463h-18.88A3.255,3.255,0,0,1,298-136.639l.761-3.434h0l.146-.66a5.523,5.523,0,0,1,5.1-4.176l13.21.006.195-.877a1.711,1.711,0,0,0-1.649-2.119H300.473l1.053-4.75,18.978.005a3.251,3.251,0,0,1,3.169,4.174l-.357,1.612h0l-.434,1.956h0l-2.227,10.048h0Zm-14.675-4.752H315.51l.654-2.942h-9.886a1.451,1.451,0,0,0-.146-.008h0a1.944,1.944,0,0,0-1.8,1.472h0a1.147,1.147,0,0,0,1.119,1.472v.006" transform="translate(-172.663 -41.633)" fill="#505391" fill-rule="evenodd"/>
      <path id="path66" d="M59.157-185.49l-.7,1.9-1.725,1.709c-.629.623-.764.619-.616,1.5a5.572,5.572,0,0,0,1.588,3.021c.963.966,2.986,2.333,4.442,1.688a10.2,10.2,0,0,1-.543,1.5c-.976,2.14,1.4,2.559,3.067,3.01,1.384.374,4.779,1.371,5.269-.447a4.794,4.794,0,0,0,.176-2.039,7.855,7.855,0,0,1,.924-1.643,2.131,2.131,0,0,0,.347-1.9c-.021-.173-.046-.363-.075-.561a17.571,17.571,0,0,0,4.846.045c-.49.286-.982.536-1.63.869-1.539.791-.089,3.125.575,4.147,1.392,2.145,2.64,3.621,4.991,2.348.79-.428.851-.883,1.344-1.619.272-.149,1.676-1.343,2.51-2.017.316.379.922.449,1.84.516.462.034,2.274.022,2.754.025,1.441.009,2.306-.141,2.418-1.711a2.044,2.044,0,0,0-.345-1.554q-.033-1.232-.066-2.464a5.777,5.777,0,0,0-.565-2.357c-.33-.785-.515-1.455-.9-2.216.053-.3.095-.606.123-.928l1.47,1.416c.934.9,1.705,1.634,3.129,1.567a4.242,4.242,0,0,0,3.615-2.667l.434-1.431a10.769,10.769,0,0,0,6.8-.713c2.864-1.528,4.2-4.6,4.533-7.851.266-2.629-.246-7.051-1.5-9.45-.369-.705-2.033-1.6-2.763-.859-.55.557-.927,1.406-1.521,1.913a5.4,5.4,0,0,1-1.528.793,8.785,8.785,0,0,0-1.621-2.664,6.542,6.542,0,0,0-1.763-1.411,36.592,36.592,0,0,1-3.784-3.053c-3.879-3.2-7.21-3.1-12.043-1.066a10.87,10.87,0,0,0-4.832,4.18,3.326,3.326,0,0,0-2.345,1.007c-.667.588-1.288,1.194-1.889,1.821-4.518.72-7.323,1.581-10.292,4.212a12.037,12.037,0,0,0-2.771,3.592,5.992,5.992,0,0,1-2.107,1.746c-.591.227-.58.227-.788-.329.7-.528.692-1.522.757-2.422.443.021.61.518.911.9.178-.8.281-2.031-.556-2.465.136-.364.29-.731.431-1.132-1.235.214-5.469,3.068-3.21,5.245a7.087,7.087,0,0,0,.462,1.429,2.009,2.009,0,0,0,2.692.864,15,15,0,0,0-.167,4.6,13.718,13.718,0,0,0,.2,1.408" transform="translate(-5.432 -0.998)" fill="none" fill-rule="evenodd"/>
      <path id="path68" d="M58.79-186.028l-.28.763-.537-.2.28-.763Zm-.28.763-.417,1.134-.537-.2.417-1.134Zm-.417,1.134-.067.1-.2-.2Zm-.067.1-.914.905-.4-.4.914-.905Zm-.914.905-.811.8-.4-.4.811-.8Zm-.811.8c-.124.122-.166.163-.2.2l-.4-.414.2-.19Zm-.2.2c-.366.352-.438.422-.333,1.052l-.563.094c-.155-.928-.047-1.032.5-1.56Zm-.333,1.052a5.1,5.1,0,0,0,.518,1.528l-.508.266a5.663,5.663,0,0,1-.574-1.7Zm.518,1.528a5.554,5.554,0,0,0,.99,1.339l-.4.4a6.127,6.127,0,0,1-1.093-1.475Zm.99,1.339a7.094,7.094,0,0,0,2.313,1.543l-.2.534a7.708,7.708,0,0,1-2.516-1.675Zm2.313,1.543a2.4,2.4,0,0,0,1.812.085l.23.523a2.941,2.941,0,0,1-2.243-.073l.2-.534Zm1.812.085.552-.244-.161.582-.276-.076Zm.391.338c-.072.26-.156.526-.252.793L61-175.637c.092-.253.171-.505.239-.75Zm-.252.793c-.09.249-.192.5-.307.753l-.521-.237c.106-.233.2-.472.289-.711Zm-.307.753a1.323,1.323,0,0,0,.809,1.977l-.237.521a1.823,1.823,0,0,1-1.093-2.735Zm.809,1.977a10.633,10.633,0,0,0,1.674.534l-.143.552a11.155,11.155,0,0,1-1.768-.565l.237-.521Zm1.674.534.4.1-.145.552-.4-.1Zm.4.1a15.5,15.5,0,0,0,2.915.588l-.036.572a15.973,15.973,0,0,1-3.024-.608Zm2.915.588c.956.061,1.808-.1,2.005-.832l.552.145c-.293,1.086-1.384,1.336-2.593,1.259Zm2.005-.832a5.517,5.517,0,0,0,.19-.984l.572.047a6.079,6.079,0,0,1-.21,1.083Zm.19-.984a5.034,5.034,0,0,0-.022-.955l.568-.054a5.6,5.6,0,0,1,.026,1.056Zm-.022-.955.022-.143.262.116Zm.022-.143a7.611,7.611,0,0,1,.824-1.5l.472.322a7.153,7.153,0,0,0-.772,1.412Zm.824-1.5.125-.185.474.32-.127.187Zm.125-.185a1.834,1.834,0,0,0,.351-.764l.566.078a2.335,2.335,0,0,1-.443,1.006l-.474-.32Zm.351-.764a3.954,3.954,0,0,0-.051-.945l.568-.065a4.224,4.224,0,0,1,.049,1.088Zm-.051-.945c-.014-.117-.026-.21-.034-.27l.566-.072c.017.129.029.219.036.277Zm-.034-.27c-.006-.049-.021-.146-.04-.282l.566-.083c.009.061.022.156.04.293Zm-.04-.282-.056-.382.381.057-.042.283Zm.325-.324a16.776,16.776,0,0,0,2.394.187l0,.572a17.346,17.346,0,0,1-2.477-.194Zm2.394.187a18.283,18.283,0,0,0,2.376-.144l.067.568a18.849,18.849,0,0,1-2.445.148l0-.572Zm2.376-.144.177.532-.143-.248Zm.177.532c-.462.269-.923.506-1.511.808l-.262-.51c.581-.3,1.036-.532,1.487-.795Zm-1.511.808-.131.067-.262-.51.131-.067Zm-.131.067c-.6.311-.61.963-.4,1.647l-.545.17c-.293-.936-.254-1.846.68-2.327Zm-.4,1.647a9.246,9.246,0,0,0,1.08,2.09l-.479.311a9.764,9.764,0,0,1-1.146-2.23l.545-.17Zm1.08,2.09a7.592,7.592,0,0,0,2.045,2.367l-.3.487a8.027,8.027,0,0,1-2.226-2.544Zm2.045,2.367a2.4,2.4,0,0,0,2.571-.116l.271.505a2.915,2.915,0,0,1-3.139.1Zm2.571-.116a2.08,2.08,0,0,0,.9-.972l.5.282a2.55,2.55,0,0,1-1.133,1.2Zm.9-.972c.091-.159.191-.334.337-.553l.474.317c-.117.175-.219.354-.313.517l-.5-.282Zm.337-.553.1-.093.137.251-.237-.159Zm.1-.093c.167-.092.881-.681,1.575-1.255l.365.44c-.718.593-1.456,1.2-1.665,1.317l-.275-.5Zm1.575-1.255c.357-.3.71-.587.893-.734l.36.447c-.335.271-.61.5-.888.728Zm.893-.734.219-.177.181.217-.22.183Zm.4.04a.966.966,0,0,0,.54.28l-.132.557a1.5,1.5,0,0,1-.849-.47Zm.54.28a7.387,7.387,0,0,0,1.1.133l-.04.572a7.721,7.721,0,0,1-1.191-.148Zm1.1.133c.352.025,1.475.025,2.2.025v.572c-.741,0-1.888,0-2.24-.025Zm2.2.025h.535l0,.572h-.533v-.572Zm.535,0a3.339,3.339,0,0,0,1.565-.226l.282.5a3.754,3.754,0,0,1-1.849.3l0-.572Zm1.565-.226c.323-.183.517-.544.566-1.219l.572.04a1.872,1.872,0,0,1-.856,1.677Zm.566-1.219a2.64,2.64,0,0,0-.008-.73l.559-.123a3.032,3.032,0,0,1,.022.894Zm-.008-.73a2.541,2.541,0,0,0-.3-.664l.5-.28a2.942,2.942,0,0,1,.359.82l-.559.123Zm-.3-.664-.036-.133.286-.007Zm-.036-.133q-.017-.616-.033-1.232l.572-.013q.016.616.033,1.232Zm-.033-1.232q-.016-.616-.033-1.232l.572-.013q.016.616.033,1.232Zm-.033-1.232a5.049,5.049,0,0,0-.147-1.139l.554-.139a5.6,5.6,0,0,1,.165,1.264Zm-.147-1.139a7.9,7.9,0,0,0-.4-1.114l.528-.221a8.383,8.383,0,0,1,.423,1.2Zm-.4-1.114c-.125-.3-.233-.587-.338-.871l.537-.2c.1.27.2.546.329.846Zm.2-1.069h0l-.268.1Zm-.537.2a12.184,12.184,0,0,0-.555-1.329l.512-.257a12.666,12.666,0,0,1,.58,1.387Zm-.555-1.329-.026-.178.282.049Zm-.026-.178c.028-.16.052-.308.07-.442l.566.072c-.023.175-.047.33-.072.469Zm.07-.442c.016-.122.033-.274.049-.461l.572.047c-.012.135-.031.3-.056.485l-.566-.072Zm.049-.461.053-.6.431.415-.2.207Zm.484-.183.841.81-.4.414-.841-.81Zm.841.81.629.606-.4.414-.629-.606Zm.629.606a7.587,7.587,0,0,0,1.328,1.106l-.291.494a8,8,0,0,1-1.433-1.186Zm1.328,1.106a2.739,2.739,0,0,0,1.59.382l.027.572a3.287,3.287,0,0,1-1.907-.46Zm1.59.382a3.954,3.954,0,0,0,2.083-.8l.34.46a4.539,4.539,0,0,1-2.4.908Zm2.083-.8a3.4,3.4,0,0,0,1.271-1.667l.548.166a3.974,3.974,0,0,1-1.479,1.962Zm1.271-1.667.2-.661.548.166-.2.661Zm.2-.661.234-.77.548.166-.234.77Zm.234-.77.075-.245.252.048-.053.281Zm.326-.2a12.729,12.729,0,0,0,3.633.168l.056.568a13.294,13.294,0,0,1-3.794-.175Zm3.633.168a8.145,8.145,0,0,0,2.976-.853l.268.505a8.723,8.723,0,0,1-3.189.916Zm2.976-.853a7.475,7.475,0,0,0,2.965-2.922l.5.284a8.044,8.044,0,0,1-3.193,3.144Zm2.965-2.922h0l.248.143-.248-.142Zm0,0a11.8,11.8,0,0,0,1.418-4.7l.568.054a12.388,12.388,0,0,1-1.489,4.934Zm1.418-4.7a20.965,20.965,0,0,0-.225-5.052l.564-.089a21.548,21.548,0,0,1,.23,5.195Zm-.225-5.052a14.542,14.542,0,0,0-1.245-4.239l.508-.264a15.111,15.111,0,0,1,1.3,4.414Zm-1.245-4.239a1.168,1.168,0,0,0-.216-.275l.4-.409a1.747,1.747,0,0,1,.323.421l-.508.264Zm-.216-.275a2.735,2.735,0,0,0-.987-.6l.186-.541a3.329,3.329,0,0,1,1.2.733Zm-.987-.6a1.257,1.257,0,0,0-.955-.022l-.264-.508a1.8,1.8,0,0,1,1.4-.011l-.186.541Zm-.955-.022a.581.581,0,0,0-.146.108l-.409-.4a1.163,1.163,0,0,1,.291-.215Zm-.146.108a6.11,6.11,0,0,0-.645.838l-.472-.322a6.593,6.593,0,0,1,.708-.916Zm-.645.838a5.437,5.437,0,0,1-.895,1.093l-.371-.436a4.992,4.992,0,0,0,.794-.979l.472.322Zm-.895,1.093a4.8,4.8,0,0,1-1.395.755l-.212-.532a4.353,4.353,0,0,0,1.236-.659l.371.436Zm-1.395.755-.211.085-.217-.53.215-.087Zm-.211.085-.273.113-.1-.279.268-.1Zm-.377-.167a7.366,7.366,0,0,0-.675-1.365l.485-.3a7.934,7.934,0,0,1,.726,1.473Zm-.675-1.365a10.83,10.83,0,0,0-.9-1.213l.438-.367a11.412,11.412,0,0,1,.944,1.276Zm-.9-1.213a4.679,4.679,0,0,0-.771-.736l.346-.454a5.234,5.234,0,0,1,.863.823Zm-.771-.736c-.267-.2-.571-.394-.925-.616l.3-.485c.359.224.666.418.967.647Zm-.925-.616a20.862,20.862,0,0,1-2.687-2.107l.376-.431a20.428,20.428,0,0,0,2.616,2.053Zm-2.687-2.107c-.359-.315-.722-.633-1.127-.967l.365-.443c.375.309.758.645,1.138.978l-.376.431Zm-1.127-.967a9.422,9.422,0,0,0-5.5-2.43l.036-.572a9.963,9.963,0,0,1,5.828,2.56l-.365.443Zm-5.5-2.43a14.04,14.04,0,0,0-6.251,1.407l-.221-.528a14.566,14.566,0,0,1,6.508-1.452Zm-6.251,1.407a8.837,8.837,0,0,0-2.668,1.691l-.387-.42a9.388,9.388,0,0,1,2.833-1.8Zm-2.668,1.691a17.283,17.283,0,0,0-2.046,2.4l-.458-.342a17.747,17.747,0,0,1,2.118-2.474Zm-2.046,2.4-.081.108-.134.007L77.2-206.6Zm-.215.115a3.21,3.21,0,0,0-1.063.2l-.212-.532a3.733,3.733,0,0,1,1.246-.242Zm-1.063.2a3.86,3.86,0,0,0-1.108.735l-.378-.429a4.4,4.4,0,0,1,1.274-.837Zm-1.108.735q-.491.433-.959.887l-.4-.411q.471-.456.979-.9Zm-.959.887h0l-.2-.207.2.206Zm0,0q-.465.45-.911.916l-.414-.4q.454-.474.928-.934Zm-.911.916-.162.084-.045-.282Zm-.162.084a27.7,27.7,0,0,0-5.669,1.375l-.206-.534a28.253,28.253,0,0,1,5.785-1.4l.089.563Zm-5.669,1.375a14.381,14.381,0,0,0-4.479,2.77l-.378-.429a14.928,14.928,0,0,1,4.651-2.876Zm-4.479,2.77a11.673,11.673,0,0,0-1.544,1.656l-.454-.346a12.239,12.239,0,0,1,1.62-1.738Zm-1.544,1.656a12.243,12.243,0,0,0-1.161,1.851l-.51-.259a12.826,12.826,0,0,1,1.217-1.938Zm-1.161,1.851-.042.062-.212-.191Zm-.042.062a14.283,14.283,0,0,1-1,1.038l-.382-.427a13.639,13.639,0,0,0,.956-.993Zm-1,1.038a3.961,3.961,0,0,1-1.219.785l-.206-.535a3.418,3.418,0,0,0,1.042-.677Zm-1.219.785h0l-.1-.267Zm0,0c-.367.141-.547.212-.75.126l.221-.528c.009,0,.1-.047.325-.133Zm-.75.126h0l.112-.263-.111.264Zm0,0c-.214-.091-.274-.267-.407-.622l.537-.2c.075.2.074.287.094.3Zm-.407-.622-.075-.2.172-.129.171.229Zm.1-.329c.526-.4.576-1.182.624-1.94l.572.036a2.925,2.925,0,0,1-.854,2.362Zm.624-1.94c.006-.1.013-.2.018-.273l.572.04c-.008.1-.013.186-.018.269Zm.018-.273.02-.279.279.013-.013.286Zm.3-.266c.472.022.687.355.919.715l-.481.309c-.148-.23-.286-.443-.465-.451Zm.919.715c.065.1.131.2.2.293l-.447.355c-.089-.112-.163-.227-.236-.339Zm.258.532-.131.586-.372-.469.224-.178Zm-.559-.123a3.567,3.567,0,0,0,.066-1.463l.557-.125a4.109,4.109,0,0,1-.064,1.711Zm.066-1.463a.963.963,0,0,0-.474-.686l.261-.51a1.51,1.51,0,0,1,.769,1.07Zm-.474-.686-.226-.117.089-.237.268.1Zm-.138-.354c.042-.113.1-.27.167-.431l.532.208c-.05.126-.1.253-.162.422Zm.167-.431c.084-.215.171-.436.262-.7l.541.188c-.081.232-.178.477-.271.716Zm.485-.883.48-.083-.161.459-.271-.094Zm.1.564a6.363,6.363,0,0,0-2.66,1.7l-.414-.4a7.015,7.015,0,0,1,2.978-1.868Zm-2.66,1.7a4.072,4.072,0,0,0-.765,1.06l-.519-.239a4.634,4.634,0,0,1,.87-1.216Zm-.765,1.06a1.77,1.77,0,0,0-.179,1.055l-.564.1a2.317,2.317,0,0,1,.223-1.391Zm-.179,1.055a1.72,1.72,0,0,0,.544.941l-.4.414a2.279,2.279,0,0,1-.711-1.258Zm.544.941.079.139-.277.068Zm.079.139c.073.3.138.546.209.771l-.545.17c-.074-.235-.142-.5-.218-.8Zm.209.771a4.417,4.417,0,0,0,.235.6l-.516.246a4.983,4.983,0,0,1-.264-.679Zm.235.6a1.5,1.5,0,0,0,.907.809l-.174.545a2.06,2.06,0,0,1-1.249-1.109Zm.907.809a2.156,2.156,0,0,0,1.423-.088l.208.532a2.727,2.727,0,0,1-1.806.1Zm1.423-.088.5-.194-.113.52-.279-.06Zm.383.326a11.225,11.225,0,0,0-.243,2l-.572-.02a11.783,11.783,0,0,1,.257-2.1Zm-.243,2a20.612,20.612,0,0,0,.083,2.519l-.572.047a21.079,21.079,0,0,1-.083-2.586Zm.083,2.519q.032.368.075.679l-.566.076c-.036-.257-.064-.493-.082-.708Zm.075.679c.032.228.071.461.117.7l-.561.107q-.069-.36-.121-.73Zm.117.7-.012.152-.268-.1" transform="translate(-4.797 -0.361)" fill="#505391" stroke="#505391" stroke-width="0.25"/>
      <path id="path70" d="M74.575-201.617,70.807-201,67.369-199.5l-2.92,1.837L61.67-194.27l-1.57,1.663-1.518.559-.4-.981.7-1.013.158-1.429.47.019.514.469-.139-1.456-.569-.382.017-.555-1.349.763-1.222,1.441-.255,1.288.522,1.031.487,1.752.991.469,1.042-.051.988-.574-.659,3.344.659,3.721-.726,1.718-2.377,2.561.423,1.53,1.126,1.773,2.123,1.494,1.126.154,1.252.042-.781,3.207,2.873,1.177,3.579.471,1.224-.8.094-2.166,1.366-2.261.094-1.79,3.3.236,3.061-.283-3.061,1.837.518,2.213,1.931,3.014,1.884.8,1.507-.612.612-1.224,3.155-2.4.612.518,4.945.188.989-.8.094-1.413-.33-.612-.236-3.815-1.648-3.3.282-1.46.989.518,2.779,2.59,1.366.094,1.507-.612,1.507-1.13.753-2.449,4.427.283,2.684-1.036,2.166-2.025,1.554-2.92.2-1.809.178-1.628-.33-4-.618-2.609-.23-.97-.848-1.13-1.177-.377-2.072,2.261-1.884.659-1.648-2.732-1.648-1.507-.895-.565-3.579-2.967-2.873-1.554-2.873-.236-3.344.565-2.92,1.083L80.7-206.751l-1.6,1.931-1.648.471-2.873,2.732Z" transform="translate(-6.252 -2.063)" fill="none" fill-rule="evenodd"/>
      <path id="path72" d="M71.555-174.137c-3.227,3.764-2.51,8.329-1.616,12.8l-1.432-3.618-.528-3.317q.075-1.7.151-3.392l1.357-3.241,2.035-3.015,3.166-2.638,3.467-1.432,4.07-.528-3.769,4.3c-3.026.982-4.811,1.642-6.9,4.082" transform="translate(-14.16 -21.043)" fill="none" fill-rule="evenodd"/>
      <path id="path74" d="M105.15-192.465a24.9,24.9,0,0,0-4.9,6.4c-1.021,1.833-2.167,3.6-3.241,5.407a6.725,6.725,0,0,0-.757,2.738L94.673-179.8l.754-2.261,2.563-4.6,5.427-5.352,1.734-.452" transform="translate(-32.562 -14.184)" fill="none" fill-rule="evenodd"/>
      <path id="path76" d="M139.819-209.937c-1.8.674-4.781.9-4.988,2.958a5.311,5.311,0,0,0,.993,3.75c-2.181-2.256-2.72-1.907-6.935-1.206L130.7-207l3.166-1.96,4.07-.9,1.884-.075" transform="translate(-56.151 -2.139)" fill="none" fill-rule="evenodd"/>
      <path id="path78" d="M176.808-127.481c.6.369.585.637.485.89l1.416-.566.917-1.231.681-1.755-.87-.654-3.8.485-.283.769.081,1.092.364.647.566.283.445.04" transform="translate(-88.182 -56.697)" fill="none" fill-rule="evenodd"/>
      <path id="path80" d="M173.454-141.053c-1.906.55-1.891.7-2.454,2.592a7.512,7.512,0,0,1,2.454-2.592" transform="translate(-85.182 -49.627)" fill="none" fill-rule="evenodd"/>
      <path id="path82" d="M209.766-186.606a1.843,1.843,0,0,0-.88.542,5.2,5.2,0,0,1-1.6,1.7,4.983,4.983,0,0,1-1.175.514c-.334.1-.535.011-.819.215l.506.089h1.116l1.375-.849.809-.849.669-1.358" transform="translate(-108.821 -18.223)" fill="none" fill-rule="evenodd"/>
      <path id="path84" d="M116.322-182.865a29.871,29.871,0,0,1-2.541,5.668,17,17,0,0,0,3.171-4.674c.324-.689.385-1.5,1.287-1.2.04.688.186,1.375.226,2.063.487-3.493,1.862-4.954,5.056-6.31l-2.71.324-2.548.566-1.254,1.82-.688,1.739" transform="translate(-45.735 -17.735)" fill="none" fill-rule="evenodd"/>
      <path id="path86" d="M115.506-173.25c.689,3.242,1.681,6.354,2.112,9.648.28,2.14.31,3.169-.766,5.015a7.093,7.093,0,0,0-3.046.43c-4.532,1.486-7.131,3.67-10.184-.731l2.924,1.378,2.085-.41,3.681-2.144,2.872-.566.93-3.883-.688-5.137q-.04-1.213-.081-2.427l.162-1.173" transform="translate(-38.731 -27.431)" fill="none" fill-rule="evenodd"/>
      <path id="path88" d="M154-116.829c-.381,2.634.877,4.05.356,4.778-.147.206-.347.565-.57.664-.8.352-1.892-.066-1.97.14h-2.629l-1.052-.445,1.618-1.9,1.577-3.438,1.011-3.479h.526L154-116.829" transform="translate(-69.419 -63.789)" fill="none" fill-rule="evenodd"/>
      <path id="path90" d="M128.727-133.315a8.28,8.28,0,0,0,1.147,2.638,30.688,30.688,0,0,1-1.7,5.8,4.6,4.6,0,0,1-1.09,1.633,28.033,28.033,0,0,1-2.858,2.513c-.742.572-1.26.285-2.175.155-.389.706-.5,1.1-1.213,1.456-1.1.551-2.088-.636-2.953-1.335l1.873,2.926,1.294,1.214,1.092.162,1.456-.89.769-1.456,1.618-1.213,1.982-1.7,1.254-1.78,1.132-2.1,1.456-4.368q.061-.829.121-1.658l-1.82-.809c-.445-.418-.94-.768-1.385-1.186" transform="translate(-48.564 -54.962)" fill="none" fill-rule="evenodd"/>
      <path id="path92" d="M105.984-113.1a14.565,14.565,0,0,0,6.067-.971,16.652,16.652,0,0,1,1.7-2.144,7.29,7.29,0,0,0-.93,2.993l-.607.89-4.611.121-1.5-.162-.162-.162q.02-.283.04-.566" transform="translate(-40.332 -66.752)" fill="none" fill-rule="evenodd"/>
      <path id="path94" d="M87.463-113.931l-.158-1.436c-.349,2.1-.265,3.506-1.231,5.387a7.091,7.091,0,0,1-2.628,2,3.835,3.835,0,0,1,.062,1.216c-.179,1.36-2.9.759-4.018.7l5.386,1.387,1.213-.485.4-2.346,1.132-2.1.2-1.294-.364-3.034" transform="translate(-22.095 -67.335)" fill="none" fill-rule="evenodd"/>
      <path id="path96" d="M95.306-148.9a3.712,3.712,0,0,0,.328,2.348c.572,1.146,1.275,2.223,1.9,3.355q.1-1.133.2-2.265L95.306-148.9" transform="translate(-32.971 -44.219)" fill="none" fill-rule="evenodd"/>
      <path id="path98" d="M64.919-124.073l-.525,1.118a13.867,13.867,0,0,0,1.828,4.07,3.034,3.034,0,0,1-.647,1.294,14.478,14.478,0,0,0-2.343-.158l2.71,2.1,1.335-.243,1.335-1.335-1.9-2.953-1.791-3.9" transform="translate(-10.887 -61.333)" fill="none" fill-rule="evenodd"/>
      <path id="path100" d="M191.018-188.335a29.608,29.608,0,0,1,1.194,7.294c-.081,3.11-.687,7.039-3.569,8.914-3.227,2.1-7.015,1.107-10.556.207l4.328,1.78,4.045.2,2.751-.809,2.144-1.78,1.618-3.4.607-3.923-.485-3.843-.89-3.8-1.185-.843" transform="translate(-90.067 -17.031)" fill="none" fill-rule="evenodd"/>
      <path id="path102" d="M60.438-166.488c-1.465.953-2.041,1.372-1.88,3.139L59-161.761l.621.42.767.255,1.387-.329.712-2.208-1.971.967h-.456l-.511-.785.621-.913.328-1.734.42.128.511.4-.073-.913L61-167.054l-.347-.292-.219.858" transform="translate(-7.647 -31.501)" fill="none" fill-rule="evenodd"/>
      <path id="path104" d="M170.489-209.418a26.318,26.318,0,0,1,3.936,3.732c.4.571.85.863-.007,1.67a3.935,3.935,0,0,1,1.966-.143c1.318.159,2.553,2.033,2.632,3.375-.016.126-.366.411-1.385.692-.02.039-.575-.076-.561-.038.106.29.247.334.463.47a3.068,3.068,0,0,0,.3,1.171,8.9,8.9,0,0,1,1.9.183,1.709,1.709,0,0,1,.162,1.052l.728-.121-.2-1.658.647-1.092-.93-2.1-1.78-1.7-.171-.008-2-1.228-3.264-2.671-2.424-1.583" transform="translate(-84.83 -2.497)" fill="none" fill-rule="evenodd"/>
      <path id="path106" d="M166.574-177.333a2.121,2.121,0,0,1-.3.444,2.936,2.936,0,0,1,1,1.58l-1.837.912-1.554,1.49a2.305,2.305,0,0,1-1.182-1.349,1.828,1.828,0,0,1-1.066.083.874.874,0,0,0,.526-.173l.989-1.028L164.9-176.7l1.143-.373c.145-.06.39-.2.536-.265" transform="translate(-78.724 -24.616)" fill="none" fill-rule="evenodd"/>
      <path id="path108" d="M172.307-171.45c-1.948,1.049-3.813,2.1-4.809,4.1,0-2.528,2.538-3.641,4.809-4.1" transform="translate(-82.767 -28.671)" fill="none" fill-rule="evenodd"/>
      <path id="path110" d="M160.536-187.462a5.735,5.735,0,0,0-2.34,4.916,3.879,3.879,0,0,1,1.142-4.426l.732-.356.466-.134" transform="translate(-76.192 -17.633)" fill="none" fill-rule="evenodd"/>
      <path id="path136" d="M87.108-190.123c.3-.163.842-.386,1.141-.549-.307.052-.859.165-1.166.217-.821.139-.918.336-1.045,1.145-.06.381-.143.853-.2,1.234.161-.431.355-.931.542-1.342C86.575-189.853,86.687-189.894,87.108-190.123Zm-15.24-20.827a5.219,5.219,0,0,1,2.01-1.9C72.53-212.522,72.273-212.273,71.869-210.951Zm-.212,2.133a7.566,7.566,0,0,1,4.35-4.222C73.331-212.384,72.545-211.918,71.656-208.818ZM47.468-197a5.219,5.219,0,0,1,1.18-2.5A2.112,2.112,0,0,0,47.468-197Zm25.318,19.03q-.051-.414-.1-.828a6.521,6.521,0,0,1-.02-1.409q.058-.73.115-1.461c-.142.5-.425.99-.567,1.485-.057.2-.1.358-.131.506a16.668,16.668,0,0,1-6.335.082c-.135-.784-.3-1.6-.437-2.186-.042.656-.015,2.468-.018,3.483a2.6,2.6,0,0,1-.441,1.725,16.645,16.645,0,0,0-1.072,1.826A4.6,4.6,0,0,1,63.644-173c-.3,1.053-3.271.237-4.056.022-.967-.265-2.966-.658-2.463-1.947a16.587,16.587,0,0,0,.939-3.917,21.229,21.229,0,0,1-3.735-9.147,11.5,11.5,0,0,1,.422-5.358,13.712,13.712,0,0,1,3.83-5.975c2.5-2.192,4.833-3.072,8.488-3.628-.879.984-1.749,2.025-2.7,3.14a15.936,15.936,0,0,0-2.139,3.506c-.842,1.707-.824,2.356.292,3.854a10.03,10.03,0,0,1,1.9,3.136,6.529,6.529,0,0,0-.589,2.295c1.178,1.287,2.052,2.169,3.2,2.441a4.153,4.153,0,0,0,3.061-.3c2.228-1.139,4.29-2.61,6.8-2.671a12.864,12.864,0,0,0,.487-8.014,40.07,40.07,0,0,1-.653-5.6,13.388,13.388,0,0,0-.21,5.7c.422,2.381.749,5.011-.424,7.1-2.273.174-4.221,1.557-6.269,2.618a3.436,3.436,0,0,1-2.592.218,4.907,4.907,0,0,1-2.328-1.843,4.527,4.527,0,0,1,.708-2.5c.779-1.535,1.638-2.964,2.581-4.474a43.451,43.451,0,0,0-3.158,3.96,9.562,9.562,0,0,0-1.667-2.607,2.165,2.165,0,0,1-.287-2.825,12.71,12.71,0,0,1,2.145-3.489c1.777-1.919,3.405-4.055,5.349-5.946,1.055-1.026,1.484-.991,2.884-1.2,1.265-.192,2.5-.434,3.791-.734-1.248.116-2.454.159-3.669.189h-.038a8.508,8.508,0,0,1,3.83-3.22c4.779-2.076,7.816-2.3,11.571.856.973.818,1.823,1.612,2.81,2.318a3.555,3.555,0,0,0-1.074.255,4.518,4.518,0,0,1,1.584.093q.217.141.445.275a4.178,4.178,0,0,1,1.563,1.293,13.985,13.985,0,0,1,1.279,2.151c-.24-.086-.441-.158-.62-.211a1.328,1.328,0,0,0-.427-.115,1.334,1.334,0,0,0-.83.193l-.029.014a5.888,5.888,0,0,1-1.381.466,1.649,1.649,0,0,0,.867.013.634.634,0,0,1,.087-.027,1.33,1.33,0,0,0-.178.549,1.332,1.332,0,0,0,.143.741v0a.728.728,0,0,0,.141.22c-.183.067-.369.144-.561.228a8.81,8.81,0,0,1,2.563-.044c.057.274.115.564.169.86l-.323.025-.026,0a1.619,1.619,0,0,0-1.5-.131c-1.9.434-1.456,1.5-2.332,3.112.909-1.112.842-2.275,2.324-2.626a2.389,2.389,0,0,1,.814-.149,1.856,1.856,0,0,0-.929.97c-.407,1.149-.154,2.117-.6,3.189.554-.959.587-1.9,1.082-2.9a2.027,2.027,0,0,1,1.243-.952l.333-.007a8.479,8.479,0,0,1,.119,1.8,20.1,20.1,0,0,1-.468,2.929,8.948,8.948,0,0,0,.95-2.971,8.41,8.41,0,0,0-.029-3.276c-.275-1.475,1.244-1.235,2.125-1.93.648-.511,1.094-1.327,1.689-1.905s1.518.269,1.749.83a20.658,20.658,0,0,1,1.2,8.712c-.3,2.752-1.627,5.755-4.054,7.11-3.094,1.727-6.742.672-9.815-.364a7.549,7.549,0,0,1-1.689-.906,4.325,4.325,0,0,1,.019,2.161c-.332,1.12-.867,2.953.654,3.291a1.966,1.966,0,0,0,1.659-.312,3.062,3.062,0,0,1-1.45.029.944.944,0,0,1-.746-.646,2.459,2.459,0,0,0,.78.257A1.964,1.964,0,0,0,90.7-185.8a6.989,6.989,0,0,1,.361-1.319c.233.072.475.138.722.2l-.419,1.367a3.314,3.314,0,0,1-3.021,2.114,4.14,4.14,0,0,1-2.679-1.45c-.548-.488-1.076-.954-1.6-1.417a12.339,12.339,0,0,1-3.915-1.967,6.928,6.928,0,0,0,2.911,2.284,25.131,25.131,0,0,1-1.454,5.265,18.22,18.22,0,0,1-2.913,4.578c-.41.236-2.978,2.4-3.462,2.685-.36.478-.676,1.138-1.217,1.424-1.648.872-2.708-.8-3.595-2.207-.4-.642-1.526-2.492-.548-3.01a25.891,25.891,0,0,0,2.385-1.459c.139.253.376.5.531.749Zm5.731,2.989c-.835.674-2.238,1.868-2.51,2.017-.493.736-.554,1.191-1.344,1.619-2.351,1.272-3.6-.2-4.991-2.348-.663-1.022-2.113-3.356-.575-4.147.648-.333,1.14-.583,1.63-.869a17.568,17.568,0,0,1-4.846-.045c.029.2.055.388.075.561a2.13,2.13,0,0,1-.347,1.9,7.859,7.859,0,0,0-.924,1.643,4.794,4.794,0,0,1-.176,2.039c-.49,1.818-3.885.822-5.269.447-1.665-.45-4.044-.869-3.067-3.01a10.175,10.175,0,0,0,.543-1.5c-1.456.644-3.479-.722-4.442-1.688a5.572,5.572,0,0,1-1.588-3.021c-.148-.881-.012-.877.616-1.5l1.725-1.709.7-1.9a13.746,13.746,0,0,1-.2-1.409,14.987,14.987,0,0,1,.167-4.6A2.009,2.009,0,0,1,51-193.36a7.066,7.066,0,0,1-.462-1.429c-2.259-2.177,1.975-5.031,3.21-5.245-.141.4-.3.768-.432,1.132.838.434.735,1.669.557,2.465-.3-.38-.468-.878-.911-.9-.065.9-.054,1.894-.756,2.422.208.556.2.556.788.329a5.991,5.991,0,0,0,2.108-1.746,12.036,12.036,0,0,1,2.771-3.592c2.968-2.631,5.773-3.492,10.291-4.212.6-.627,1.223-1.233,1.89-1.822a3.325,3.325,0,0,1,2.345-1.007,10.871,10.871,0,0,1,4.832-4.179c4.833-2.034,8.164-2.132,12.043,1.066a36.589,36.589,0,0,0,3.784,3.053,6.543,6.543,0,0,1,1.763,1.411,8.789,8.789,0,0,1,1.621,2.663,5.382,5.382,0,0,0,1.528-.792c.594-.507.971-1.356,1.521-1.913.73-.739,2.394.153,2.763.859,1.254,2.4,1.766,6.821,1.5,9.45-.329,3.25-1.669,6.323-4.533,7.851a10.768,10.768,0,0,1-6.8.713l-.434,1.431a4.243,4.243,0,0,1-3.615,2.667c-1.424.067-2.2-.668-3.129-1.567l-1.47-1.415c-.028.321-.071.63-.124.928.386.762.571,1.431.9,2.216a5.774,5.774,0,0,1,.565,2.357q.033,1.232.066,2.464a2.045,2.045,0,0,1,.345,1.554c-.113,1.57-.977,1.72-2.418,1.711-.48,0-2.292.008-2.754-.025C79.438-174.53,78.833-174.6,78.517-174.98Zm4.859-8.564c-.29,1.035-.68,2.012-1.035,3.132-.337,1.06-2.063,4.139-3.079,4.885a2.622,2.622,0,0,0,1.208.261c.458.04,2.261.048,2.714.056,1,.017,1.376-.058,1.476-1.193a1.448,1.448,0,0,0-.272-1.147q-.037-1.3-.074-2.607a5,5,0,0,0-.505-2.066A13.121,13.121,0,0,1,83.376-183.543ZM53-197.765c.224-.025.362.092.535.265-.032-.413-.108-.72-.4-.889-.02.067-.039.134-.058.2A3.334,3.334,0,0,0,53-197.765Zm1.406,2.987c-.161.417-.311.847-.451,1.291-.023.073-.046.147-.067.221-.851.361-1.971.591-2.4-.3a8.185,8.185,0,0,1-.477-1.409c-1.4-1.453.694-3.37,1.835-4.058a6.292,6.292,0,0,0-.363.9c-.347,1.2.157,2.27-.932,3.14.512,1.033.488,1.444,1.679.967a3.9,3.9,0,0,0,1.176-.748ZM54.083-185a23.553,23.553,0,0,0,2.963,6.269c0,.011,0,.021,0,.032a2.354,2.354,0,0,1-.35.874c-.871,1.165-3.086-.545-3.727-1.2a4.412,4.412,0,0,1-1.282-2.358c-.081-.58,0-.594.4-1l1.636-1.656Zm41.239-17.915a1.356,1.356,0,0,1,.294.431,1.447,1.447,0,0,1,.12-.1q-.077-.172-.156-.34ZM84.654-198.9a1.742,1.742,0,0,1-.17-.738,5.353,5.353,0,0,1-1.344.833c.651-.582,1.536-1.953,2.176-2.386.727-.491,1.714-.4,2.562-.788a5.155,5.155,0,0,1-1.038.677,1.748,1.748,0,0,1,.981.891,1.743,1.743,0,0,1,.159.56,5.036,5.036,0,0,1,1.6-.269,9.971,9.971,0,0,0-4.728,3.053,3.938,3.938,0,0,1,.568-1.038A1.743,1.743,0,0,1,84.654-198.9Zm-7.838-6.114a21.926,21.926,0,0,1-2.694.866,5.589,5.589,0,0,0-1.527,3.119c-.225-1.439-.272-1.706.369-2.78a3.109,3.109,0,0,0-.605.435c-.895.765-2.061,3.771-2.527,4.845.3-1.293,1.222-4.527,2.175-5.469a1.912,1.912,0,0,1,1.653-.689Q75.239-204.839,76.816-205.017ZM96.3-201.88a2.918,2.918,0,0,0,1.868-.147,6.181,6.181,0,0,0,2.8-2.867,4.227,4.227,0,0,1-2.651,3.244C97.555-201.381,97.067-201.66,96.3-201.88Zm-14.531.142a4.478,4.478,0,0,1,2.754-3.422C81.92-204.509,81.432-203.417,81.766-201.738Zm-33.718,6.8a7.565,7.565,0,0,1,2.509-5.518c-2.251,1.586-2.813,2.307-2.509,5.518" fill="#505391" stroke="#505391" stroke-width="0.25" fill-rule="evenodd"/>
      <path id="path138" d="M168.186-168.538a.732.732,0,0,1,.346-.975.735.735,0,0,1,.977.345.73.73,0,0,1,.04.105,4.629,4.629,0,0,0-.934.915.8.8,0,0,1-.429-.391" transform="translate(-83.192 -29.958)" fill="#ffc" fill-rule="evenodd"/>
      <path id="path140" d="M194.549-177.458a.539.539,0,0,1,.587-.494.551.551,0,0,1,.494.6.543.543,0,0,1-.05.179,4.721,4.721,0,0,0-.835.232.73.73,0,0,1-.2-.517" transform="translate(-101.415 -24.187)" fill="#ffc" fill-rule="evenodd"/>
    </g>
  </g>
</svg>
