<svg xmlns="http://www.w3.org/2000/svg" x="0px" y="0px"
width="100" height="100"
viewBox="0 0 172 172"
style=" fill:#000000;"><g fill="none" fill-rule="nonzero" stroke="none" stroke-width="1" stroke-linecap="butt" stroke-linejoin="miter" stroke-miterlimit="10" stroke-dasharray="" stroke-dashoffset="0" font-family="none" font-weight="none" font-size="none" text-anchor="none" style="mix-blend-mode: normal"><path d="M0,172v-172h172v172z" fill="none"></path><g fill="#aaaaaa"><path d="M96.965,-0.01344c9.46,21.88969 -33.94312,35.40781 -37.96094,53.65594c-3.70875,16.74313 25.75969,36.21406 25.77312,36.21406c-4.47469,-6.93375 -7.71312,-12.65813 -12.20125,-23.44844c-7.59219,-18.24813 46.21156,-34.74938 24.38906,-66.42156zM125.73469,30.315c0,0 -38.00125,2.40531 -39.93625,26.72719c-0.86,10.83063 9.98406,16.60875 10.30656,24.49656c0.24188,6.42313 -6.49031,11.78469 -6.49031,11.78469c0,0 12.21469,-2.29781 16.04438,-12.12062c4.23281,-10.89781 -8.21031,-18.34219 -6.96063,-27.06313c1.20938,-8.34469 27.03625,-23.82469 27.03625,-23.82469zM134.95281,86.49719c-3.9775,-0.17469 -8.39844,1.14219 -12.40281,4.01781c7.8475,-1.67969 14.48563,3.1175 14.48563,8.65375c0,12.47 -18.01969,24.25469 -18.01969,24.25469c0,0 27.89625,-3.18469 27.89625,-23.66344c0,-8.46562 -5.34812,-12.95375 -11.95937,-13.26281zM65.99156,86.52406c0,0 -34.81656,-0.47031 -34.81656,9.37937c0,10.29313 45.59344,11.01875 78.1525,4.67625c0,0 8.69406,-5.95281 11.00531,-8.17c-21.33875,4.35375 -70.03625,4.93156 -70.03625,1.16906c0,-3.48031 15.695,-7.05469 15.695,-7.05469zM57.57969,105.68594c-5.33469,0 -13.30312,4.12531 -13.30312,8.10281c0,7.99531 40.21844,14.16313 69.99594,2.4725l-10.30656,-6.31562c-20.18312,6.46344 -57.39156,4.39406 -46.38625,-4.25969zM62.53813,123.57125c-7.32344,0 -12.06688,4.515 -12.06688,7.8475c0,10.26625 43.71219,11.30094 61.03313,0.86l-11.00531,-7.00094c-12.94031,5.46906 -45.43219,6.20812 -37.96094,-1.70656zM38.14906,132.87c-11.9325,-0.24187 -19.68594,5.11969 -19.68594,9.5675c-0.01344,23.65 122.20062,22.50781 122.20062,-1.66625c0,-4.00437 -4.73,-5.9125 -6.43656,-6.82625c9.98406,23.1125 -99.93469,21.32531 -99.93469,7.68625c0,-3.10406 8.0625,-6.15437 15.56063,-4.68969l-6.35594,-3.61469c-1.86781,-0.28219 -3.655,-0.43 -5.34812,-0.45688zM153.55031,148.78c-18.58406,17.60313 -65.66906,24.02625 -113.02281,13.15531c47.34031,19.36344 112.78094,8.46562 113.02281,-13.15531z"></path></g></g></svg>