<svg xmlns="http://www.w3.org/2000/svg" xmlns:xlink="http://www.w3.org/1999/xlink" width="200" height="100" viewBox="0 0 200 100">
  <defs>
    <clipPath id="clip-custom_1">
      <rect width="200" height="100"/>
    </clipPath>
  </defs>
  <g id="custom_1" data-name="custom – 1" clip-path="url(#clip-custom_1)">
    <g id="MongoDB_Logo" transform="translate(-6.321 18.935)">
      <path id="Path_1" data-name="Path 1" d="M29.616,25.718C26.832,13.437,21.03,10.168,19.55,7.857A26.287,26.287,0,0,1,17.932,4.69,3.224,3.224,0,0,1,16.783,7.3c-1.862,1.66-9.769,8.1-10.435,22.057-.62,13.009,9.564,21.031,10.909,21.861a2.989,2.989,0,0,0,2.909-.456c4.909-3.369,11.617-12.351,9.455-25.039" transform="translate(0 0)" fill="#505392" stroke="#505392" stroke-width="1"/>
      <path id="Path_2" data-name="Path 2" d="M67.591,222.46a26.747,26.747,0,0,1-1.091,6.931s.427,3.066.727,6.313h1.062a59.045,59.045,0,0,1,1.158-6.8C68.073,228.229,67.644,225.286,67.591,222.46Z" transform="translate(-49.237 -178.175)" fill="#505392" stroke="#505392" stroke-width="1"/>
      <path id="Path_3" data-name="Path 3" d="M73.021,51.977h0c-1.389-.642-1.791-3.647-1.853-6.447a131.972,131.972,0,0,0,.3-13.882c-.073-2.429.035-22.5-.6-25.437A24.415,24.415,0,0,0,72.363,9.1c1.48,2.313,7.284,5.582,10.066,17.862C84.6,39.627,77.925,48.586,73.021,51.977Z" transform="translate(-52.813 -1.244)" fill="#505392" stroke="#505392" stroke-width="1"/>
      <path id="Path_4" data-name="Path 4" d="M1076.128,206.353a3.016,3.016,0,1,1,3.016-3.058,2.978,2.978,0,0,1-3.016,3.058m0-5.76a2.746,2.746,0,1,0,2.727,2.753,2.7,2.7,0,0,0-2.727-2.753m.727,4.651-.778-1.678h-.627v1.678h-.456v-3.818h1.125c.838,0,1.187.364,1.187,1.067a.928.928,0,0,1-.755,1.016l.8,1.729Zm-1.388-2.073h.66c.534,0,.738-.182.738-.669s-.195-.653-.8-.653h-.6Z" transform="translate(-872.824 -160.06)" fill="#505392"/>
      <path id="Path_5" data-name="Path 5" d="M804.583,122.285a6.925,6.925,0,0,0,3.885.922,7.563,7.563,0,0,0,5.476-1.958c1.818-1.653,3.069-4.182,3.069-8.22,0-3.88-1.476-7.029-4.506-8.873a12.052,12.052,0,0,0-6.449-1.5,5.354,5.354,0,0,0-1.9.231,1,1,0,0,0-.351.545c-.076.691-.076,5.953-.076,9.064,0,3.189,0,7.637.076,8.182a2.354,2.354,0,0,0,.776,1.613m-7.753-21.362c.66,0,3.169.115,4.336.115,2.182,0,3.689-.115,7.767-.115a12.575,12.575,0,0,1,8.351,2.687,11.184,11.184,0,0,1,3.818,8.8c0,5.186-2.364,8.182-4.74,9.871-2.364,1.767-5.438,2.766-9.818,2.766-2.331,0-6.333-.076-9.673-.115H796.8c-.156-.307.285-1.505.558-1.536a4.941,4.941,0,0,0,1.567-.311c.706-.289.871-.649.949-1.916.117-2.382.078-5.224.078-8.451,0-2.3.038-6.8-.038-8.22-.118-1.189-.62-1.5-1.636-1.727a21.135,21.135,0,0,0-2.182-.345c-.076-.231.52-1.273.715-1.5" transform="translate(-646.174 -78.741)" fill="#505392" stroke="#505392" stroke-width="1"/>
      <path id="Path_6" data-name="Path 6" d="M952.062,103.182c-.155.038-.349.424-.349.615-.04,1.384-.078,4.993-.078,7.489a.247.247,0,0,0,.194.193c.5.038,1.747.078,2.8.078a6.644,6.644,0,0,0,2.8-.424,3.622,3.622,0,0,0,1.818-3.418c0-3.342-2.331-4.609-5.787-4.609a10.424,10.424,0,0,0-1.4.076m8.818,15.364c0-3.38-2.487-5.3-7.033-5.3a17.756,17.756,0,0,0-1.98.038c-.116.038-.233.115-.233.193,0,2.42-.04,6.3.078,7.835a2.592,2.592,0,0,0,1.125,1.844,7.813,7.813,0,0,0,2.991.422c2.68,0,5.051-1.5,5.051-5.031M945.044,101.3c.351,0,1.384.115,4.026.115,2.485,0,4.505-.076,6.909-.076,2.991,0,7.108,1.076,7.108,5.531a5.39,5.39,0,0,1-3.573,4.8c-.116.038-.116.115,0,.153,2.875.727,5.4,2.5,5.4,5.877,0,3.3-2.058,5.378-5.049,6.684a16.03,16.03,0,0,1-6.364,1.075c-1.747,0-6.431-.182-9.035-.153-.273-.115.249-1.345.482-1.536a7.162,7.162,0,0,0,1.762-.276c.931-.229,1.042-.529,1.158-1.913.078-1.191.078-5.455.078-8.489,0-4.149.04-6.951,0-8.335-.038-1.075-.427-1.422-1.166-1.613-.582-.116-1.553-.231-2.329-.345-.194-.193.4-1.345.6-1.5" transform="translate(-767.505 -79.044)" fill="#505392" stroke="#505392" stroke-width="1"/>
      <path id="Path_7" data-name="Path 7" d="M180.112,161.443a1.684,1.684,0,0,1-.118-.776.987.987,0,0,1,.118-.518,13.2,13.2,0,0,0,1.491-.3c.687-.171.945-.545.985-1.422.113-2.071.12-5.957.08-8.687v-.08a1.107,1.107,0,0,0-.364-.976,7.808,7.808,0,0,0-2.06-.909c-.325-.1-.505-.267-.5-.467s.215-.436.638-.52a24.5,24.5,0,0,0,5.233-1.353.767.767,0,0,1,.155.545c0,.12-.018.247-.031.378-.033.385-.069.824-.069,1.26a.287.287,0,0,0,.487.165,9.647,9.647,0,0,1,5.195-2.346,4.468,4.468,0,0,1,3.971,2.436.267.267,0,0,0,.225.133.258.258,0,0,0,.211-.113c2.027-1.538,4.036-2.456,5.382-2.456,3.178,0,5.078,2.38,5.078,6.364,0,1.145-.011,2.6-.022,3.953-.009,1.189-.018,2.3-.018,3.075a1.063,1.063,0,0,0,.627.809,8.035,8.035,0,0,0,1.986.489h.033a2.954,2.954,0,0,1-.2,1.3c-.211,0-.5-.018-.865-.036-.66-.033-1.565-.078-2.618-.078-2.113,0-3.216.04-4.271.109a3.2,3.2,0,0,1-.011-1.293,11.186,11.186,0,0,0,1.295-.282c.673-.222.867-.527.909-1.42.016-.635.138-6.226-.078-7.553a3.38,3.38,0,0,0-3.5-2.987,6.168,6.168,0,0,0-3.495,1.333.509.509,0,0,0-.127.329v.027a14.3,14.3,0,0,1,.153,2.816c0,.727,0,1.486-.009,2.244-.009,1.542-.016,3,.009,4.1a1.031,1.031,0,0,0,.818,1.073c.2.044.355.082.513.118.3.075.62.151,1.091.225a2.089,2.089,0,0,1-.018.967.775.775,0,0,1-.136.329c-1.175-.04-2.38-.075-4.12-.075-.527,0-1.387.022-2.147.042-.616.016-1.2.033-1.529.035a1.5,1.5,0,0,1-.116-.669,1.16,1.16,0,0,1,.122-.625l.467-.085c.407-.073.76-.135,1.091-.218.575-.182.791-.495.833-1.227a57.731,57.731,0,0,0-.042-7.867c-.411-1.978-1.536-2.982-3.347-2.982A6.3,6.3,0,0,0,186,149.1a1.066,1.066,0,0,0-.322.791v2.035c0,2.473-.016,5.551.044,6.882a1.09,1.09,0,0,0,.951,1.076c.169.049.46.1.8.153.195.033.407.067.627.107a2.756,2.756,0,0,1-.1,1.3c-.338,0-.755-.022-1.231-.042-.727-.033-1.636-.073-2.664-.073-1.215,0-2.06.04-2.738.073-.456.022-.851.04-1.246.042" transform="translate(-141.895 -115.15)" fill="#505392" stroke="#505392" stroke-width="1"/>
      <path id="Path_8" data-name="Path 8" d="M363.367,147.143a3.313,3.313,0,0,0-1.855.522c-1.349.82-2.036,2.458-2.036,4.866,0,4.506,2.256,7.653,5.487,7.653a3.455,3.455,0,0,0,2.367-.838c.993-.809,1.52-2.464,1.52-4.78,0-4.438-2.206-7.422-5.487-7.422m.622,14.711c-5.837,0-7.915-4.282-7.915-8.287a7.41,7.41,0,0,1,3.4-6.5,10.383,10.383,0,0,1,5.253-1.553c4.453,0,7.564,3.2,7.564,7.789a8.059,8.059,0,0,1-3.593,7.117,10.191,10.191,0,0,1-4.709,1.438" transform="translate(-286.157 -115.216)" fill="#505392" stroke="#505392" stroke-width="1"/>
      <path id="Path_9" data-name="Path 9" d="M690.183,147.143a3.3,3.3,0,0,0-1.858.522c-1.349.82-2.036,2.458-2.036,4.866,0,4.506,2.256,7.653,5.487,7.653a3.455,3.455,0,0,0,2.375-.838c.993-.809,1.518-2.464,1.518-4.78,0-4.438-2.2-7.422-5.486-7.422m.622,14.711c-5.836,0-7.915-4.282-7.915-8.286a7.406,7.406,0,0,1,3.4-6.506,10.364,10.364,0,0,1,5.251-1.553c4.453,0,7.564,3.2,7.564,7.787a8.053,8.053,0,0,1-3.593,7.117,10.171,10.171,0,0,1-4.709,1.44" transform="translate(-553.554 -115.216)" fill="#505392" stroke="#505392" stroke-width="1"/>
      <path id="Path_10" data-name="Path 10" d="M584.786,146.925c-1.8,0-2.962,1.42-2.962,3.618s1,4.811,3.818,4.811a2.741,2.741,0,0,0,1.795-.693,4.491,4.491,0,0,0,1.091-3.158c0-2.867-1.4-4.578-3.733-4.578m-.233,15.171a2.961,2.961,0,0,0-1.454.364c-1.424.909-2.084,1.818-2.084,2.875a3.07,3.07,0,0,0,1.209,2.475,6.13,6.13,0,0,0,4.122,1.26c3.489,0,5.053-1.876,5.053-3.735a2.648,2.648,0,0,0-1.986-2.653,15.578,15.578,0,0,0-4.855-.584m.233,8.909a7.533,7.533,0,0,1-4.893-1.435,4.585,4.585,0,0,1-1.818-3.4,2.656,2.656,0,0,1,.687-1.727,18.068,18.068,0,0,1,3.164-2.535.167.167,0,0,0,.1-.155.162.162,0,0,0-.124-.16,3.341,3.341,0,0,1-2.242-2.182.186.186,0,0,0-.016-.085.5.5,0,0,1,.2-.627c.225-.16.585-.375.971-.6a13.056,13.056,0,0,0,1.562-1.016.256.256,0,0,0-.066-.4c-2.382-.8-3.582-2.569-3.582-5.273a5.242,5.242,0,0,1,2.2-4.315,10.037,10.037,0,0,1,4.922-1.669h.091a10.149,10.149,0,0,1,3.757.836,5.971,5.971,0,0,0,2.222.353,2.994,2.994,0,0,0,2.4-.909,2.087,2.087,0,0,1,.127.687,2.586,2.586,0,0,1-.433,1.578,1.961,1.961,0,0,1-1.493.649,1.247,1.247,0,0,1-.182-.009,4.9,4.9,0,0,1-.909-.151l-.149.053c-.047.069-.016.145.022.244a.325.325,0,0,1,.022.06,10.646,10.646,0,0,1,.216,1.473,5.5,5.5,0,0,1-2.32,4.971,7.92,7.92,0,0,1-4,1.549h0c-.031,0-.182.013-.466.038-.182.016-.418.038-.453.038h-.035c-.262.073-.945.4-.945,1,0,.5.309,1.125,1.787,1.238l.956.067a29.42,29.42,0,0,1,5.529.693,3.829,3.829,0,0,1,2.558,3.686c0,2.536-1.8,4.922-4.824,6.38a10.484,10.484,0,0,1-4.562,1.024" transform="translate(-467.809 -115.15)" fill="#505392" stroke="#505392" stroke-width="1"/>
      <path id="Path_11" data-name="Path 11" d="M479.125,159.845a6.937,6.937,0,0,1-2.215-.576,1.019,1.019,0,0,1-.273-.545c-.078-1.191-.078-4.647-.078-6.909a8.254,8.254,0,0,0-1.091-4.609,4.675,4.675,0,0,0-3.962-2.075c-1.515,0-3.535,1.036-5.2,2.458-.04.038-.3.282-.291-.1s.064-1.145.1-1.636a.842.842,0,0,0-.255-.713,23.153,23.153,0,0,1-5.284,1.384c-.825.16-1.035.955-.153,1.229h.013a7.54,7.54,0,0,1,2,.88,1.049,1.049,0,0,1,.311.96c.038,2.573.038,6.529-.078,8.68-.038.845-.273,1.153-.895,1.307l.058-.02a12.084,12.084,0,0,1-1.438.269,2.094,2.094,0,0,0,0,1.536c.389,0,2.364-.115,4-.115,2.251,0,3.417.115,4,.115a2.144,2.144,0,0,0,.156-1.536,8.18,8.18,0,0,1-1.595-.231c-.62-.153-.776-.462-.815-1.151-.076-1.807-.076-5.647-.076-8.26a1.538,1.538,0,0,1,.425-1.273,5.118,5.118,0,0,1,3.186-1.151,3.476,3.476,0,0,1,2.364.805,3.291,3.291,0,0,1,1.113,2.171c.155,1.455.115,4.38.115,6.909,0,1.384-.115,1.731-.62,1.884a6.274,6.274,0,0,1-1.593.307,2.1,2.1,0,0,0,0,1.536c1.009,0,2.182-.115,3.884-.115,2.136,0,3.5.115,4.04.115a2.138,2.138,0,0,0,.156-1.536" transform="translate(-371.067 -114.905)" fill="#505392" stroke="#505392" stroke-width="1"/>
    </g>
  </g>
</svg>
