<svg xmlns="http://www.w3.org/2000/svg" xmlns:xlink="http://www.w3.org/1999/xlink" width="150" height="100" viewBox="0 0 150 100">
  <defs>
    <clipPath id="clip-custom_1">
      <rect width="150" height="100"/>
    </clipPath>
  </defs>
  <g id="custom_1" data-name="custom – 1" clip-path="url(#clip-custom_1)">
    <g id="mysql" transform="translate(40.013 0.886)">
      <path id="Path_1" data-name="Path 1" d="M0,117.232V0H109.437V117.232Z" transform="translate(-13.924)" fill="none"/>
      <g id="Group_1" data-name="Group 1" transform="translate(-36.606)">
        <path id="Path_2" data-name="Path 2" d="M89.611,27.52A3.025,3.025,0,0,0,86.478,29.5c-1.033,2.5,1.539,4.953,2.46,6.233a19.025,19.025,0,0,1,1.932,2.886c.3.663.348,1.325.606,2.022a52.554,52.554,0,0,0,2.482,5.267,17.782,17.782,0,0,0,1.4,2.37c.326.438.876.64.966,1.314a10.87,10.87,0,0,0-.876,2.909c-1.37,4.324-.854,9.7,1.134,12.893.618.988,2.067,3.089,4.043,2.291,1.73-.708,1.348-2.9,1.842-4.841.112-.427.045-.752.27-1.044v.09c.517,1.056,1.045,2.111,1.572,3.156a21.977,21.977,0,0,0,5.009,5.189c.91.685,1.629,1.876,2.808,2.28v-.09h-.09c-.225-.359-.584-.505-.876-.786a19.442,19.442,0,0,1-2.01-2.291,51.879,51.879,0,0,1-4.3-7.019c-.618-1.179-1.157-2.482-1.673-3.684-.2-.472-.2-1.168-.618-1.415a17.256,17.256,0,0,0-1.842,2.639,22.756,22.756,0,0,0-1.056,5.8c-.157.056-.09.011-.168.09-1.224-.3-1.662-1.561-2.111-2.639a16.53,16.53,0,0,1-.348-10.265c.258-.82,1.438-3.381.966-4.133-.225-.752-.988-1.179-1.4-1.752a13.274,13.274,0,0,1-1.4-2.46c-.943-2.134-1.831-4.6-2.83-6.761a19.1,19.1,0,0,0-1.932-2.988,17.331,17.331,0,0,1-2.111-2.987c-.191-.427-.472-1.123-.168-1.572a.687.687,0,0,1,.528-.528c.505-.393,1.921.124,2.46.348a21.658,21.658,0,0,1,3.774,1.932c.573.382,1.146,1.112,1.842,1.325h.786c1.247.281,2.628.079,3.774.438a22.612,22.612,0,0,1,5.526,2.628A34.069,34.069,0,0,1,118.869,49.5c.46.876.663,1.718,1.067,2.639.8,1.864,1.819,3.8,2.628,5.616a25.72,25.72,0,0,0,2.718,5.178c.6.8,2.909,1.235,3.953,1.673a24.209,24.209,0,0,1,2.628,1.056c1.337.8,2.617,1.752,3.864,2.639.629.438,2.538,1.393,2.639,2.19a17.656,17.656,0,0,0-7.458,1.056c-.573.247-1.494.247-1.584.966.3.326.359.82.606,1.224a9.753,9.753,0,0,0,2.022,2.37c.8.6,1.606,1.235,2.46,1.763,1.5.91,3.19,1.438,4.65,2.359.854.55,1.718,1.235,2.549,1.842.416.314.685.786,1.224.977v-.09c-.281-.359-.348-.854-.606-1.224l-1.157-1.157a18.756,18.756,0,0,0-4.032-3.852c-1.2-.865-3.886-2.033-4.38-3.426l-.09-.09a18.273,18.273,0,0,0,2.628-.618c1.325-.348,2.493-.258,3.852-.606.618-.18,1.235-.359,1.853-.528V71.1c-.685-.7-1.179-1.64-1.932-2.28a55.9,55.9,0,0,0-6.323-4.74c-1.224-.775-2.74-1.28-4.032-1.932-.438-.225-1.2-.337-1.494-.708a18.3,18.3,0,0,1-1.584-2.976c-1.1-2.123-2.179-4.436-3.156-6.671a36.056,36.056,0,0,0-1.932-4.391c-3.987-6.548-8.277-10.512-14.926-14.4a17.726,17.726,0,0,0-4.908-1.572c-.977-.067-1.932-.124-2.909-.18a14.654,14.654,0,0,1-1.752-1.325c-1.381-.865-4.1-2.37-6.346-2.4Zm9.513,9.524a6.541,6.541,0,0,0-1.584.18v.09h.09a11.38,11.38,0,0,0,1.235,1.572c.292.618.573,1.235.865,1.853l.09-.09a2.167,2.167,0,0,0,.8-1.932c-.225-.225-.258-.517-.438-.786-.258-.371-.741-.573-1.056-.887ZM5.366,73.511a10.717,10.717,0,0,0-2.83.528c-1.707.517-2.549,1.539-2.549,3.616V99.4H5.748V78.184l7.985,18.138c.988,2.257,2.336,3.066,4.975,3.066s3.942-.809,4.93-3.066l7.985-17.678V99.4h5.75V77.656c0-2.078-.831-3.1-2.549-3.616-4.088-1.292-6.84-.18-8.075,2.617L18.552,95.1,10.623,76.656a5.069,5.069,0,0,0-5.256-3.145Zm70.094.011c-2.269,0-9.333.27-9.333,5.75v3.549c0,2.516,2.213,4.571,7.008,5.077.539.034,1.078.079,1.617.079,0,0,5.593-.112,5.75-.079,3.235,0,2.875,2.516,2.875,2.875v2.875a2.72,2.72,0,0,1-2.909,2.875H66.127V99.4h14.4A12.428,12.428,0,0,0,85.7,98.321c2.426-1.112,3.426-2.617,3.426-4.594V89.617c0-4.414-5.481-4.594-8.626-4.594h-5.75c-2.257,0-2.606-1.37-2.875-2.875V79.273c.27-1.146.775-2.7,2.774-2.875H89.129V73.523Zm22.238,0c-4.245.584-5.739,2.7-5.739,5.75V93.649c0,2.8,1.561,4.481,4.773,5.357a10.871,10.871,0,0,0,2.976.427l6.4-.034h3.762l3.2,2.875h6.469l-4.448-4.01c2.089-.865,2.74-2.19,2.74-4.672V79.273c0-3.055-1.988-5.166-6.233-5.75Zm23.058,0v20c0,3.47,1.965,5.425,7.166,5.818.483.022.977.056,1.46.056h14.376V96.524H130.471c-2.965,0-3.965-1.247-3.965-3.021V73.523ZM101.123,76.4h7.4a3.762,3.762,0,0,1,3.56,2.875s.045,13.388.045,14.376a1.882,1.882,0,0,1-.55,1.438l-1.561-1.438H103.5l3.2,2.875h-5.582a3.463,3.463,0,0,1-3.414-2.875V79.565a3.209,3.209,0,0,1,3.414-3.167ZM40.25,82.148c.112.112,0,12.253,0,12.489.045,2.516,3.235,4.717,8.232,4.762H57.5v.191c0,.539.393,2.336-2.875,2.684H40.25v2.875H55.244c2.538-.079,8.042-.651,8.008-5.054,0-.079.022-17.947,0-17.947H57.5V96.524c-.09,0-7.121.022-8.536,0-2.774-.045-3.01-1.629-2.965-2.235V82.148Z" transform="translate(0.013 -27.518)" fill="#aaaaaa" stroke="#aaaaaa" stroke-width="1"/>
      </g>
    </g>
  </g>
</svg>
