<svg xmlns="http://www.w3.org/2000/svg" xmlns:xlink="http://www.w3.org/1999/xlink" width="180" height="100" viewBox="0 0 180 100">
  <defs>
    <clipPath id="clip-custom_1">
      <rect width="180" height="100"/>
    </clipPath>
  </defs>
  <g id="custom_1" data-name="custom – 1" clip-path="url(#clip-custom_1)">
    <g id="nodejs" transform="translate(23 -9.582)">
      <path id="Path_1" data-name="Path 1" d="M0,135V0H135V135Z" transform="translate(0)" fill="none"/>
      <g id="Group_1" data-name="Group 1" transform="translate(0 23.974)">
        <path id="Path_2" data-name="Path 2" d="M92.761,32.25a1.31,1.31,0,0,0-1.31,1.31V57.494L86.025,54.33a2.2,2.2,0,0,0-2.211,0l-13.039,7.6a2.193,2.193,0,0,0-1.1,1.9V79.056a2.188,2.188,0,0,0,1.1,1.9l13.039,7.6a2.2,2.2,0,0,0,2.211,0l13.039-7.6a2.193,2.193,0,0,0,1.1-1.9V37.608a2.182,2.182,0,0,0-1.08-1.88l-5.673-3.3a1.284,1.284,0,0,0-.646-.179ZM50.081,54.033a2.2,2.2,0,0,0-1.106.3l-13.039,7.6a2.193,2.193,0,0,0-1.1,1.9V79.056a2.188,2.188,0,0,0,1.1,1.9l13.039,7.6a2.205,2.205,0,0,0,2.211,0l13.039-7.6a2.193,2.193,0,0,0,1.1-1.9V63.831a2.188,2.188,0,0,0-1.1-1.9l-13.039-7.6a2.2,2.2,0,0,0-1.106-.3Zm69.677,0a2.173,2.173,0,0,0-1.106.3l-13.039,7.6a2.193,2.193,0,0,0-1.1,1.9V79.056a2.188,2.188,0,0,0,1.1,1.9L118.261,88.6a2.17,2.17,0,0,0,2.22.017L126.7,85a.973.973,0,0,0,0-1.684l-13.473-7.936V67.565l6.532-3.8,6.532,3.8v5.444a.64.64,0,0,0,1.021.6c1.646-.967,6.609-3.845,6.609-3.845A2.177,2.177,0,0,0,135,67.88V63.831a2.188,2.188,0,0,0-1.1-1.9l-13.039-7.6a2.185,2.185,0,0,0-1.106-.3Zm-104.516.008a2.173,2.173,0,0,0-1.106.3L1.1,61.934A2.207,2.207,0,0,0,0,63.84V83.275a1.229,1.229,0,0,0,1.846,1.063L7.629,80.97a2.182,2.182,0,0,0,1.08-1.88V67.582l6.532-3.81,6.532,3.81V79.09a2.182,2.182,0,0,0,1.08,1.88l5.784,3.368a1.227,1.227,0,0,0,1.846-1.063V63.84a2.207,2.207,0,0,0-1.1-1.905l-13.039-7.6a2.173,2.173,0,0,0-1.106-.3Zm69.677,9.722,6.532,3.81v7.74l-6.532,3.81-6.532-3.81v-7.74Zm34.839,3.343-3.734,2.177v4.346l3.734,2.169,3.734-2.169V69.283ZM67.092,84.5a2.635,2.635,0,0,0-1.293.332L53.551,91.908a2.552,2.552,0,0,0-1.293,2.228v14.136a2.619,2.619,0,0,0,1.293,2.228l3.224,1.837a5.257,5.257,0,0,0,2.815.765c2.308,0,3.623-1.38,3.623-3.819V95.319a.358.358,0,0,0-.357-.366H61.308a.365.365,0,0,0-.366.366v13.966c0,1.058-1.118,2.143-2.943,1.233l-3.351-1.931a.4.4,0,0,1-.187-.323V94.128a.385.385,0,0,1,.187-.34L66.9,86.728a.4.4,0,0,1,.383,0l12.256,7.06a.362.362,0,0,1,.187.34v14.136a.406.406,0,0,1-.187.34l-12.256,7.085a.4.4,0,0,1-.383,0l-3.13-1.863a.359.359,0,0,0-.3-.025,7.333,7.333,0,0,1-1.846.851c-.213.065-.5.2.111.536L65.8,117.6a2.794,2.794,0,0,0,1.293.34,2.371,2.371,0,0,0,1.276-.357L80.616,110.5a2.552,2.552,0,0,0,1.293-2.228V94.136a2.625,2.625,0,0,0-1.293-2.228L68.368,84.831A2.542,2.542,0,0,0,67.092,84.5Zm19.1,6.524a2.352,2.352,0,1,0,2.348,2.348A2.324,2.324,0,0,0,86.2,91.023Zm-.026.374a1.977,1.977,0,0,1,2,1.973,2.033,2.033,0,0,1-2,2,1.986,1.986,0,0,1,0-3.972Zm-.859.638v2.645h.5V93.626h.468c.192,0,.237.082.281.23,0,.022.08.707.1.834h.544a3.115,3.115,0,0,1-.128-.706c-.061-.34-.081-.574-.442-.6a.621.621,0,0,0,.51-.655c0-.7-.609-.7-.927-.7Zm.5.425h.425c.131,0,.383,0,.383.357a.359.359,0,0,1-.408.383h-.4Zm-15.438,2.16c-3.5,0-5.571,1.49-5.571,3.947,0,2.691,2.078,3.411,5.427,3.751,4.006.4,4.321.977,4.321,1.761,0,1.376-1.1,1.948-3.691,1.948-3.244,0-3.958-.8-4.193-2.416a.355.355,0,0,0-.366-.3H64.71a.358.358,0,0,0-.357.366c0,2.055,1.12,4.516,6.481,4.516,3.932,0,6.158-1.528,6.158-4.2,0-2.648-1.783-3.352-5.554-3.862-3.815-.51-4.193-.766-4.193-1.659,0-.74.312-1.71,3.13-1.71,2.521,0,3.461.551,3.845,2.245a.33.33,0,0,0,.332.272h1.591a.359.359,0,0,0,.255-.1.319.319,0,0,0,.085-.272C76.229,95.981,74.3,94.621,70.375,94.621Z" transform="translate(0 -32.25)" fill="#505392"/>
      </g>
    </g>
  </g>
</svg>
