<svg xmlns="http://www.w3.org/2000/svg" xmlns:xlink="http://www.w3.org/1999/xlink" width="100" height="100" viewBox="0 0 100 100">
  <defs>
    <clipPath id="clip-custom_1">
      <rect width="100" height="100"/>
    </clipPath>
  </defs>
  <g id="custom_1" data-name="custom – 1" clip-path="url(#clip-custom_1)">
    <g id="react">
      <path id="Path_1" data-name="Path 1" d="M0,100V0H100V100Z" fill="none"/>
      <g id="Group_1" data-name="Group 1" transform="translate(2.083 7.19)">
        <path id="Path_2" data-name="Path 2" d="M51.5,91.833C24.625,91.833,3.583,82.667,3.583,71S24.625,50.167,51.5,50.167,99.417,59.333,99.417,71,78.375,91.833,51.5,91.833Zm0-37.5C25.25,54.333,7.75,62.875,7.75,71S25.25,87.667,51.5,87.667,95.25,79.125,95.25,71,77.75,54.333,51.5,54.333Z" transform="translate(-3.583 -28.19)" fill="#505392" stroke="#505392" stroke-width="1"/>
        <path id="Path_3" data-name="Path 3" d="M45.744,98.1a9.62,9.62,0,0,1-5.417-1.458c-10.208-5.833-7.5-28.542,5.833-51.875h0c6.25-10.833,13.958-20,21.458-25.833,8.125-6.25,15.417-8.125,20.417-5.208,5.208,2.917,7.083,10.208,5.833,20.417-1.25,9.583-5.417,20.833-11.667,31.667s-13.958,20-21.458,25.833c-5.417,4.167-10.625,6.458-15,6.458ZM82.827,16.433c-3.333,0-7.708,1.875-12.5,5.625-7.083,5.625-14.375,14.375-20.417,24.792h0c-13.125,22.708-14.375,42.292-7.5,46.25,3.542,2.083,9.375.208,15.833-4.792,7.083-5.625,14.375-14.375,20.417-24.792s10-21.042,11.25-30c1.042-8.333-.208-14.167-3.75-16.25a8.735,8.735,0,0,0-3.333-.833Z" transform="translate(-16.369 -12.372)" fill="#505392" stroke="#505392" stroke-width="1"/>
        <path id="Path_4" data-name="Path 4" d="M83.046,98.093c-10.417,0-25.417-12.708-36.667-32.5C32.838,42.26,30.129,19.552,40.338,13.718h0C50.546,7.885,68.879,21.427,82.421,44.76c6.25,10.833,10.417,22.083,11.667,31.667,1.458,10.208-.625,17.292-5.833,20.417A11.3,11.3,0,0,1,83.046,98.093ZM42.421,17.26c-6.875,3.958-5.625,23.542,7.5,46.25S79.3,97.052,86.171,93.093c3.542-2.083,4.792-7.917,3.75-16.25-1.25-8.958-5.208-19.583-11.25-30C65.546,24.135,49.3,13.3,42.421,17.26Z" transform="translate(-16.379 -12.366)" fill="#505392" stroke="#505392" stroke-width="1"/>
        <circle id="Ellipse_1" data-name="Ellipse 1" cx="8.333" cy="8.333" r="8.333" transform="translate(39.583 34.477)" fill="#505392" stroke="#505392" stroke-width="3.583"/>
      </g>
    </g>
  </g>
</svg>
