<svg xmlns="http://www.w3.org/2000/svg" xmlns:xlink="http://www.w3.org/1999/xlink" width="180" height="100" viewBox="0 0 180 100">
  <defs>
    <clipPath id="clip-path">
      <rect id="Rectangle_1" data-name="Rectangle 1" width="140" height="140" transform="translate(0 0)"/>
    </clipPath>
    <clipPath id="clip-custom_1">
      <rect width="180" height="100"/>
    </clipPath>
  </defs>
  <g id="custom_1" data-name="custom – 1" clip-path="url(#clip-custom_1)">
    <g id="custom_1-2" data-name="custom – 1" transform="translate(20 -33)" clip-path="url(#clip-path)">
      <g id="g4163" transform="translate(0 33.659)">
        <g id="g4165">
          <path id="path4167" d="M284.3-165.226c-.12-.257-.174-.387-.24-.511q-2.623-4.987-5.258-9.969a.609.609,0,0,1,.088-.817q4.172-4.874,8.319-9.77a.876.876,0,0,0,.222-.44c-.81.212-1.62.419-2.43.635q-5.042,1.336-10.08,2.681a.464.464,0,0,1-.362,0,.463.463,0,0,1-.249-.263q-2.863-4.782-5.744-9.551a1.3,1.3,0,0,0-.419-.465c-.154.849-.311,1.7-.462,2.547q-.8,4.5-1.6,9c-.059.324-.14.646-.166.977s-.186.419-.466.512q-5.942,1.865-11.875,3.753a1.313,1.313,0,0,0-.53.3l9.762,3.879c-.12.095-.2.167-.279.225q-3.036,1.964-6.07,3.931a.646.646,0,0,1-.7.057c-2.417-1.089-4.843-2.156-7.258-3.238a7.492,7.492,0,0,1-2.826-2.062,3.748,3.748,0,0,1-1.051-3.212,3.748,3.748,0,0,1,1.962-2.752,10.824,10.824,0,0,1,2.452-1.117c3.879-1.263,7.773-2.483,11.666-3.706a.663.663,0,0,0,.537-.6q.777-4.5,1.6-9a15.651,15.651,0,0,1,1.224-4.716,7.916,7.916,0,0,1,1.086-1.591,3.463,3.463,0,0,1,2.633-1.329,3.463,3.463,0,0,1,2.7,1.181,10.151,10.151,0,0,1,1.435,1.869q2.7,4.4,5.331,8.845a.578.578,0,0,0,.322.328.578.578,0,0,0,.46-.011q6.51-1.745,13.028-3.456a6.129,6.129,0,0,1,2.722-.152,2.681,2.681,0,0,1,2.108,1.338,2.681,2.681,0,0,1,.092,2.495,7.4,7.4,0,0,1-1.439,2.328q-4.547,5.347-9.1,10.69a.623.623,0,0,0-.082.825q2.722,5.129,5.418,10.273a5.712,5.712,0,0,1,.772,2.611,4.21,4.21,0,0,1-3.672,4.205,7.616,7.616,0,0,1-3.415-.419q-4.081-1.256-8.175-2.489a.466.466,0,0,1-.394-.447c-.314-1.919-.656-3.834-.987-5.751a1.229,1.229,0,0,1,.014-.228l9.388,2.589" transform="translate(-156.615 201.847)" fill="#aaaaaa" fill-rule="evenodd"/>
          <path id="path4169" d="M294.99-84.093c-2.454,0-4.907-.015-7.363,0a.712.712,0,0,1-.688-.368q-4.358-6.638-8.74-13.26c-.094-.14-.193-.279-.357-.512-.628,4.772-1.242,9.438-1.856,14.115h-6.421c.075-.627.14-1.231.22-1.834q.941-7.188,1.887-14.376.9-6.867,1.814-13.733a.593.593,0,0,1,.221-.381q3.316-2.163,6.649-4.3a1,1,0,0,1,.191-.056c-.671,5.12-1.337,10.2-2,15.277l.08.054,10.52-11.66c.1.593.191,1.1.279,1.609.25,1.454.489,2.912.755,4.365a.689.689,0,0,1-.219.678q-3.376,3.534-6.739,7.082c-.1.1-.193.209-.3.332.071.114.14.225.205.327q5.808,8.151,11.618,16.3a2.3,2.3,0,0,0,.258.262v.087" transform="translate(-172.616 148.67)" fill="#aaaaaa" fill-rule="evenodd"/>
          <path id="path4171" d="M85.681-83.5a15.03,15.03,0,0,0-.391-1.923,6.642,6.642,0,0,0-8.01-4.327,8.933,8.933,0,0,0-7.033,7.89,6.409,6.409,0,0,0,4.2,6.789,7.583,7.583,0,0,0,6.729-.768A8.933,8.933,0,0,0,85.681-83.5ZM68.694-71.15c-.191,1.429-.373,2.775-.55,4.123q-.353,2.687-.7,5.374c-.027.209-.089.3-.314.3-1.766-.007-3.531,0-5.3-.008a.954.954,0,0,1-.176-.049c.106-.846.211-1.693.321-2.54q.585-4.457,1.174-8.912c.452-3.4.81-6.809,1.4-10.189A15.926,15.926,0,0,1,76.594-95.459a12.474,12.474,0,0,1,9.759,1.535,10.887,10.887,0,0,1,5.117,8.276,14.59,14.59,0,0,1-4.831,12.57,14.992,14.992,0,0,1-8.331,4.166,12.311,12.311,0,0,1-9.22-2.006c-.1-.071-.212-.14-.388-.246" transform="translate(-39.484 133.942)" fill="#aaaaaa" fill-rule="evenodd"/>
          <path id="path4173" d="M26.33-116.077l-5.805,4.327c-.308-.487-.586-.977-.909-1.425a4.466,4.466,0,0,0-3.367-2.136,3.769,3.769,0,0,0-3.168,1.245,2.215,2.215,0,0,0-.149,2.931c.783,1.025,1.639,2,2.512,2.944,1.45,1.572,2.965,3.083,4.405,4.663a9.829,9.829,0,0,1,2.678,5.015A10.22,10.22,0,0,1,21.34-91.9a12.552,12.552,0,0,1-9.518,6.7,12.487,12.487,0,0,1-5.583-.3A8.221,8.221,0,0,1,1.027-90.07C.643-90.866.349-91.711,0-92.557l6.295-3.369c.073.174.124.321.193.456a18.816,18.816,0,0,0,1.094,2.136,4.274,4.274,0,0,0,5.59,1.583,6.161,6.161,0,0,0,1.535-1,3.277,3.277,0,0,0,.621-4.5,21.925,21.925,0,0,0-2.048-2.487c-1.717-1.908-3.5-3.753-5.183-5.695a9,9,0,0,1-2.191-4.691,8.044,8.044,0,0,1,1.138-5.452,11.822,11.822,0,0,1,11.078-6.049,8.724,8.724,0,0,1,6.7,3.554c.508.638.977,1.3,1.5,1.992" transform="translate(0 150.478)" fill="#aaaaaa" fill-rule="evenodd"/>
          <path id="path4175" d="M169.982-77.536c-.322,2.466-.627,4.811-.944,7.155a.479.479,0,0,1-.211.327c-4.79,2.219-11.1,1.909-15.033-2.558a11.549,11.549,0,0,1-2.868-8.418,15.863,15.863,0,0,1,13.663-14.636,11.7,11.7,0,0,1,10.856,3.926,10.936,10.936,0,0,1,2.734,7.9c-.088,1.954-.4,3.908-.639,5.862-.345,2.759-.723,5.516-1.087,8.274-.013.1-.032.2-.054.32h-5.731c.077-.634.14-1.256.226-1.873.419-3.185.871-6.366,1.235-9.557a10.21,10.21,0,0,0-.825-5.8,5.605,5.605,0,0,0-4.72-3.217,8.948,8.948,0,0,0-9.553,6.941,6.638,6.638,0,0,0,2.641,7.134,7.23,7.23,0,0,0,7.033.525,9.194,9.194,0,0,0,3.273-2.3" transform="translate(-96.643 133.922)" fill="#aaaaaa" fill-rule="evenodd"/>
          <path id="path4177" d="M244.467-93.954c-.261,1.988-.519,3.944-.783,5.942-1.212,0-2.4-.007-3.587,0a2.26,2.26,0,0,0-2.13,1.527,6.218,6.218,0,0,0-.2,1.1q-.9,6.839-1.8,13.688c-.151,1.15-.3,2.3-.449,3.47H229.55c.112-.878.216-1.727.328-2.574q.582-4.436,1.168-8.869c.339-2.558.642-5.121,1.041-7.677a8.291,8.291,0,0,1,7.382-6.6c1.644-.071,3.3-.013,5-.013" transform="translate(-146.995 132.767)" fill="#aaaaaa" fill-rule="evenodd"/>
          <path id="path4179" d="M349.466-27.753v-2.512h-.014l-.988,2.512h-.315l-.988-2.512h-.015v2.512h-.493v-3.016h.768l.9,2.292.886-2.292h.762v3.016Zm-4.377-2.613v2.613h-.5v-2.613h-.945v-.4h2.387v.4h-.945" transform="translate(-220.059 92.291)" fill="#aaaaaa"/>
          <path id="path4181" d="M89.6-125.451h1.48l-.349-2.233ZM91.313-124H88.854l-.782,1.535H86.33l3.844-7.181h1.675l1.309,7.181H91.546L91.314-124" transform="translate(-55.282 155.615)" fill="#aaaaaa"/>
          <path id="path4183" d="M118.634-128.2h-.877l-.294,1.658h.877a.918.918,0,0,0,.7-.286.918.918,0,0,0,.248-.717.6.6,0,0,0-.173-.482.6.6,0,0,0-.483-.172Zm-2.123-1.446h2.3a1.872,1.872,0,0,1,1.47.509,1.872,1.872,0,0,1,.577,1.445,2.512,2.512,0,0,1-.756,1.888,2.512,2.512,0,0,1-1.906.71h-.992l-.465,2.63h-1.5l1.266-7.181" transform="translate(-73.799 155.61)" fill="#aaaaaa"/>
          <path id="path4185" d="M139.2-125.451h1.48l-.349-2.233ZM140.913-124h-2.461l-.782,1.535h-1.742l3.844-7.181h1.675l1.309,7.181h-1.615L140.909-124" transform="translate(-87.039 155.615)" fill="#aaaaaa"/>
          <path id="path4187" d="M168.431-122.933a3.936,3.936,0,0,1-1.626.37,3.032,3.032,0,0,1-2.251-.927,3.032,3.032,0,0,1-.844-2.283,4.256,4.256,0,0,1,4.2-4.2,3.133,3.133,0,0,1,1.51.37l-.211,1.722a1.936,1.936,0,0,0-1.457-.592,2.578,2.578,0,0,0-2.471,2.556,1.707,1.707,0,0,0,.437,1.3,1.707,1.707,0,0,0,1.253.559,2.69,2.69,0,0,0,1.658-.581l-.2,1.71" transform="translate(-104.834 155.82)" fill="#aaaaaa"/>
          <path id="path4189" d="M193.177-125.364h-3.125l-.508,2.893h-1.5l1.267-7.181h1.5l-.507,2.84h3.121l.507-2.84h1.5l-1.266,7.181h-1.5l.507-2.893" transform="translate(-120.417 155.612)" fill="#aaaaaa"/>
          <path id="path4191" d="M217.606-122.471l1.266-7.181h3.982l-.254,1.446h-2.482l-.253,1.4h2.281l-.253,1.446h-2.282l-.254,1.447h2.482l-.254,1.447H217.6" transform="translate(-139.348 155.612)" fill="#aaaaaa"/>
        </g>
      </g>
    </g>
  </g>
</svg>
