<svg xmlns="http://www.w3.org/2000/svg" xmlns:xlink="http://www.w3.org/1999/xlink" width="180" height="100" viewBox="0 0 180 100">
  <defs>
    <clipPath id="clip-custom_1">
      <rect width="180" height="100"/>
    </clipPath>
  </defs>
  <g id="custom_1" data-name="custom – 1" clip-path="url(#clip-custom_1)">
    <g id="g37" transform="translate(0 88.738)">
      <g id="g39" transform="translate(0 -62.981)">
        <path id="path41" d="M80.429-25.535a2.078,2.078,0,0,1-1.028-1.88A2.162,2.162,0,0,1,81.6-29.6a2.347,2.347,0,0,1,1.16.31,12.477,12.477,0,0,0,6.8,2.283c2.326,0,3.667-.985,3.667-2.553v-.089c0-1.834-2.5-2.459-5.279-3.308-3.487-.985-7.378-2.415-7.378-6.933v-.091c0-4.474,3.712-7.2,8.409-7.2A16.253,16.253,0,0,1,96.4-45.26,2.294,2.294,0,0,1,97.7-43.2a2.178,2.178,0,0,1-2.235,2.2,2.092,2.092,0,0,1-1.072-.27,12.891,12.891,0,0,0-5.548-1.613c-2.1,0-3.312.986-3.312,2.329v.087c0,1.745,2.549,2.459,5.324,3.355,3.444,1.074,7.336,2.639,7.336,6.888v.091c0,4.965-3.849,7.422-8.768,7.422a16.137,16.137,0,0,1-8.991-2.817" transform="translate(-27.492 59.396)" fill="#aaaaaa"/>
        <path id="path43" d="M125.272-34.953v-.091c0-4.56-3.087-7.558-6.753-7.558s-6.888,3.042-6.888,7.558v.091c0,4.518,3.22,7.562,6.888,7.562,3.712,0,6.753-2.91,6.753-7.562m-18.92-9.529a2.674,2.674,0,0,1,2.686-2.728,2.712,2.712,0,0,1,2.727,2.728v1.613a9.456,9.456,0,0,1,8.052-4.428c5.545,0,10.958,4.381,10.958,12.253v.091c0,7.829-5.368,12.256-10.958,12.256a9.658,9.658,0,0,1-8.052-4.157v8.36a2.675,2.675,0,0,1-2.727,2.69,2.667,2.667,0,0,1-2.686-2.69V-44.482" transform="translate(-33.608 59.422)" fill="#aaaaaa"/>
        <path id="path45" d="M140.6-44.452a2.672,2.672,0,0,1,2.681-2.728,2.711,2.711,0,0,1,2.73,2.728v1.3c.27-2.027,3.577-4.029,5.949-4.029A2.512,2.512,0,0,1,154.64-44.5a2.541,2.541,0,0,1-2.148,2.594c-3.847.671-6.485,4.037-6.485,8.694v7.8a2.7,2.7,0,0,1-2.73,2.685,2.662,2.662,0,0,1-2.681-2.685V-44.452" transform="translate(-41.379 59.395)" fill="#aaaaaa"/>
        <path id="path47" d="M161.41-44.439a2.678,2.678,0,0,1,2.685-2.73,2.713,2.713,0,0,1,2.728,2.73V-25.4a2.672,2.672,0,0,1-2.728,2.68,2.662,2.662,0,0,1-2.685-2.68v-19.04" transform="translate(-46.102 59.392)" fill="#aaaaaa"/>
        <path id="path49" d="M171.942-44.428a2.673,2.673,0,0,1,2.682-2.727,2.71,2.71,0,0,1,2.729,2.727v1.111a8.374,8.374,0,0,1,7.379-3.851c5.323,0,8.411,3.58,8.411,9.036V-25.4a2.638,2.638,0,0,1-2.685,2.684,2.674,2.674,0,0,1-2.727-2.684V-36.477c0-3.666-1.834-5.77-5.055-5.77-3.13,0-5.323,2.192-5.323,5.862V-25.4a2.674,2.674,0,0,1-2.729,2.684,2.663,2.663,0,0,1-2.682-2.684V-44.428" transform="translate(-48.492 59.393)" fill="#aaaaaa"/>
        <path id="path51" d="M214.275-27.454c-3.716,0-6.755-2.908-6.755-7.561V-35.1c0-4.562,3.084-7.559,6.755-7.559s6.889,3.042,6.889,7.559v.088c0,4.519-3.22,7.561-6.889,7.561m9.478-19.816a2.712,2.712,0,0,0-2.726,2.729v1.61a9.454,9.454,0,0,0-8.048-4.427c-5.55,0-10.96,4.382-10.96,12.255v.088c0,7.829,5.366,12.254,10.96,12.254A9.641,9.641,0,0,0,221-26.884c-.271,4.253-2.875,6.5-7.442,6.5a14.444,14.444,0,0,1-7.248-1.883,2.153,2.153,0,0,0-.98-.219,2.285,2.285,0,0,0-2.284,2.234,2.215,2.215,0,0,0,1.525,2.148,20.36,20.36,0,0,0,9.12,2.1c4.252,0,7.563-1.028,9.71-3.176,1.964-1.97,3.038-4.918,3.038-8.9V-44.541a2.675,2.675,0,0,0-2.686-2.729" transform="translate(-55.317 59.435)" fill="#aaaaaa"/>
        <path id="path53" d="M166.839-56.4a2.731,2.731,0,0,1-2.729,2.729,2.728,2.728,0,0,1-2.727-2.729,2.725,2.725,0,0,1,2.727-2.727,2.727,2.727,0,0,1,2.729,2.727" transform="translate(-46.096 62.106)" fill="#aaaaaa"/>
        <path id="path55" d="M44.253-27.923c-6,7.994-18.817,5.3-27.035,5.684,0,0-1.455.081-2.92.322,0,0,.554-.236,1.261-.48,5.772-2,8.5-2.4,12.006-4.2,6.589-3.375,13.147-10.728,14.481-18.365C39.538-37.615,31.91-31.293,24.964-28.725a116.385,116.385,0,0,1-13.352,3.462c0,.006-.343-.18-.347-.184-5.847-2.845-6.015-15.508,4.6-19.59,4.656-1.791,9.109-.807,14.142-2.005,5.368-1.276,11.585-5.3,14.112-10.56C46.955-49.2,50.358-36.054,44.253-27.923Zm.1-32.283a22.418,22.418,0,0,1-2.591,4.594,24.264,24.264,0,0,0-17.422-7.368A24.371,24.371,0,0,0,0-38.638a24.278,24.278,0,0,0,7.792,17.83l.533.472a2.082,2.082,0,0,1-.306-2.924,2.082,2.082,0,0,1,2.925-.308,2.081,2.081,0,0,1,.306,2.927,2.079,2.079,0,0,1-2.923.307l.363.321a24.226,24.226,0,0,0,15.654,5.72,24.369,24.369,0,0,0,24.27-22.589c.668-6.171-1.155-14.007-4.257-23.325" transform="translate(0 62.981)" fill="#aaaaaa"/>
        <path id="path57" d="M240.923-45.5h-.85v1.126h.85a.575.575,0,0,0,.576-.55A.58.58,0,0,0,240.923-45.5Zm.525,2.787-.826-1.256h-.549v1.256h-.444V-45.9h1.295a.99.99,0,0,1,1.035.969.932.932,0,0,1-.812.942L242-42.717Zm-.76-3.952a2.346,2.346,0,0,0-2.356,2.356,2.355,2.355,0,0,0,2.356,2.355,2.363,2.363,0,0,0,2.355-2.355A2.355,2.355,0,0,0,240.688-46.669Zm0,5.131a2.776,2.776,0,0,1-2.775-2.775,2.768,2.768,0,0,1,2.775-2.775,2.76,2.76,0,0,1,2.775,2.775,2.768,2.768,0,0,1-2.775,2.775" transform="translate(-63.462 59.374)" fill="#aaaaaa"/>
      </g>
    </g>
  </g>
</svg>
