<svg xmlns="http://www.w3.org/2000/svg" width="100" height="111.604" viewBox="0 0 100 111.604">
  <g id="html5" transform="translate(6.807 5.12)">
    <path id="Path_10" data-name="Path 10" d="M0,106.484V0H91.029V106.484Z" fill="none"/>
    <g id="Group_5" data-name="Group 5" transform="translate(-6.807 -5.12)">
      <path id="Path_11" data-name="Path 11" d="M114.717,7.667a2.43,2.43,0,0,0-1.8-.787H17.793a2.43,2.43,0,0,0-1.8.787,2.385,2.385,0,0,0-.628,1.858l8.569,95.654A2.436,2.436,0,0,0,25.7,107.3l38.985,11.088a2.218,2.218,0,0,0,.666.095,2.262,2.262,0,0,0,.666-.095L105.026,107.3a2.449,2.449,0,0,0,1.76-2.123l8.56-95.654a2.385,2.385,0,0,0-.628-1.858ZM94.2,40.647H48.4L49.492,53H93.1l-3.272,36.5-24.49,7.373-.238-.076-24.2-7.307-1.322-14.87h11.86l.514,5.772L65.48,83.21l13.287-2.824,1.417-15.618h-41.5L35.464,28.848H95.258Z" transform="translate(-15.356 -6.88)" fill="#8febd5"/>
    </g>
  </g>
</svg>
