<svg xmlns="http://www.w3.org/2000/svg" width="111.14" height="111.14" viewBox="0 0 111.14 111.14">
  <g id="javascript" transform="translate(6.86 6.86)">
    <path id="Path_14" data-name="Path 14" d="M0,97.66V0H97.66V97.66Z" fill="none"/>
    <g id="Group_7" data-name="Group 7" transform="translate(-6.86 -6.86)">
      <path id="Path_15" data-name="Path 15" d="M117.85,13.76H20.82a7.063,7.063,0,0,0-7.06,7.06v97.02a7.063,7.063,0,0,0,7.06,7.06h97.02a7.061,7.061,0,0,0,7.06-7.05V20.82a7.061,7.061,0,0,0-7.05-7.06ZM74.622,98.924c0,10.574-6.2,15.391-15.257,15.391a18.578,18.578,0,0,1-16.5-10.585L51.189,98.7c1.6,2.843,4.042,5.034,7.556,5.034,3.359,0,5.292-1.313,5.292-6.419V64.038H74.622ZM97.58,114.315c-9.375,0-14.7-4.724-17.665-10.585l7.939-5.292c2.16,3.535,4.517,6.915,9.5,6.915,4.186,0,6.378-2.088,6.378-4.982,0-3.452-2.274-4.683-6.874-6.7l-2.522-1.085C87.047,89.487,82.2,85.6,82.2,77.372c0-7.566,5.778-13.334,14.792-13.334,6.419,0,11.029,2.233,14.358,8.083l-7.856,5.055c-1.737-3.111-3.6-4.331-6.5-4.331-2.956,0-4.827,1.881-4.827,4.331,0,3.029,1.871,4.248,6.2,6.13l2.522,1.085c8.59,3.67,13.427,7.422,13.427,15.856,0,9.086-7.143,14.068-16.735,14.068Z" transform="translate(-13.76 -13.76)" fill="#8febd5"/>
    </g>
  </g>
</svg>
