<svg id="jquery" xmlns="http://www.w3.org/2000/svg" width="111" height="111" viewBox="0 0 111 111">
  <path id="Path_16" data-name="Path 16" d="M0,111V0H111V111Z" fill="none"/>
  <g id="Group_8" data-name="Group 8" transform="translate(0.336 0.316)">
    <path id="Path_17" data-name="Path 17" d="M77.909,10.339a2.888,2.888,0,0,0-.786.236c-2.162,1.071-4.618,4.255-5.09,4.884a.821.821,0,0,0-.079.118A22.552,22.552,0,0,0,68.181,27.9a24.84,24.84,0,0,0,1.936,9.787,30.209,30.209,0,0,0,17.009,16.3c.255.088.5.177.943.334.039.02.413.138.472.147l.275.1a10.758,10.758,0,0,0,1.189.334,35,35,0,0,0,5.768.688c.314,0,.629.01.943.01,13.786,0,19.132-9.728,20.91-12.97a8.243,8.243,0,0,1,.423-.727c0-.01,0-.01.01-.02a2.514,2.514,0,1,0-4.157-2.83h-.01c-3.675,5.414-9.964,7.055-18.68,4.893a17.94,17.94,0,0,1-1.985-.639,24.042,24.042,0,0,1-2.417-1.012,25.655,25.655,0,0,1-4.255-2.663c-7.664-5.945-10.661-18.316-6.181-25.459a2.517,2.517,0,0,0-2.466-3.832ZM55.623,15.35A2.462,2.462,0,0,0,54,15.92a59.6,59.6,0,0,0-7.861,8.372.661.661,0,0,1-.069.108c-6.878,10.013-7.4,24.261-1.317,36.3a45.289,45.289,0,0,0,3.184,5.395l.344.491a23.432,23.432,0,0,0,3.459,4.294c.481.55,1,1.081,1.513,1.592l.246.255.206.206c.521.5,1.051,1.012,1.6,1.5h.01a1.044,1.044,0,0,0,.147.147c.619.55,1.248,1.071,2.083,1.729l.226.167c.649.521,1.307,1.012,1.985,1.494l.206.147c.236.157.472.3.707.472l.236.157.275.177c.5.334.992.639,1.69,1.042.452.275.933.55,1.248.707.138.079.285.157.629.344l.766.4c.039.02.216.1.255.118.5.255,1.022.5,1.543.737l.8.354c.521.226,1.051.442,1.7.688l.295.108c.02.02.265.108.285.118.472.167.953.334,1.435.491l1.1.364a12.092,12.092,0,0,0,1.887.521,60.772,60.772,0,0,0,9.915.865c.373,0,.747-.01,1.11-.01,27.769-.609,34.991-24.2,35.06-24.437a2.513,2.513,0,0,0-4.491-2.122c-7.036,10.278-20.34,14.621-33.891,11.045-.629-.157-1.238-.334-1.995-.58-.128-.039-.236-.079-.442-.157-.442-.138-.875-.285-1.366-.472l-.7-.265c-.4-.157-.806-.314-1.3-.531l-.324-.147c-.6-.255-1.179-.54-1.7-.8l-1.435-.747c-.324-.157-.609-.334-1.051-.6l-.246-.138-.246-.147c-.364-.216-.727-.442-1.061-.678l-.236-.147c-.02-.01-.216-.147-.236-.167-.295-.187-.58-.373-.855-.55-.609-.432-1.209-.884-1.906-1.435l-.275-.226A40.394,40.394,0,0,1,53.619,42.961c-2.093-6.809-.54-15.722,4.156-23.838a2.5,2.5,0,0,0-.55-3.174,2.477,2.477,0,0,0-1.6-.6ZM27.943,22.9a2.533,2.533,0,0,0-1.69.649,55.213,55.213,0,0,0-8.795,10.543C7.18,49.053,9.165,72.312,16.22,86.53c.138.295.285.58.432.865l.1.157a4.99,4.99,0,0,0,.324.639,2.435,2.435,0,0,0,.246.452c.118.246.236.462.452.835l.806,1.385c.118.187.236.383.275.452.157.255.324.521.491.786l.393.629a5.453,5.453,0,0,0,.314.452c.393.609.786,1.218,1.218,1.8a.427.427,0,0,0,.059.069l.157.216c.354.511.717,1,1.042,1.405l1.435,1.818c.02.02.177.206.187.226l.206.236c.432.531.894,1.061,1.356,1.572.069.079.138.147.206.226.442.481.894.963,1.366,1.464l.452.432c.373.393.747.776,1.14,1.14,0,.01.187.187.187.187l.393.364c.472.452.963.9,1.336,1.218.02.03.373.334.4.354.462.413.924.806,1.4,1.189L35,109c.4.295.816.59,1.287.933.157.118.324.236.491.344a1.688,1.688,0,0,0,.2.147l1.808,1.209c.658.432,1.317.835,2.122,1.317l.432.246c.5.295,1.012.59,1.494.845.285.157.57.295.816.423.344.187.717.393,1.287.668.049.029.452.226.5.246.57.285,1.15.55,1.877.875,0,.01.236.118.236.118.668.285,1.317.56,2.172.9.138.059.275.108.3.118.609.236,1.248.472,1.769.658l.364.147c.7.236,1.386.462,2.27.737.147.049.3.1.324.1l.5.157a18.08,18.08,0,0,0,1.877.511A75.9,75.9,0,0,0,70.7,121h.01c36.033,0,47.51-29,47.628-29.292a2.521,2.521,0,0,0-4.363-2.417c-9.247,12.175-26.688,16.694-46.655,12.106-.481-.118-.973-.255-1.454-.4l-.943-.285c-.639-.2-1.277-.413-1.9-.629-.01,0-.295-.108-.295-.108-.55-.187-1.1-.4-1.582-.59l-.55-.216c-.609-.246-1.218-.5-1.808-.766l-.344-.147c-.531-.246-1.042-.481-1.553-.737-.039-.02-.442-.216-.481-.226-.354-.177-.707-.364-1.159-.609L53.2,95.58a7.032,7.032,0,0,0-.629-.373c-.619-.383-1.258-.766-1.887-1.169-.147-.088-.275-.187-.521-.354-.432-.275-.855-.56-1.474-.992l-.246-.177c-.423-.295-.835-.609-1.179-.865-.216-.157-.432-.334-.786-.6-.314-.246-.629-.481-.924-.717L45,89.881c-.462-.373-.894-.766-1.346-1.15a1.28,1.28,0,0,0-.177-.147c-.5-.462-1.012-.924-1.621-1.5l-1.779-1.769c-.432-.442-.865-.894-1.356-1.435-.452-.5-.884-1-1.464-1.69L36.2,80.89a6.72,6.72,0,0,0-.432-.57c-.364-.491-.727-.973-1.091-1.484-9.787-13.481-12.342-41.623-4.717-51.931A2.513,2.513,0,0,0,27.943,22.9Z" transform="translate(-10.336 -10.316)" fill="#8febd5"/>
  </g>
</svg>
