<svg xmlns="http://www.w3.org/2000/svg" xmlns:xlink="http://www.w3.org/1999/xlink" width="186" height="159" viewBox="0 0 186 159">
  <defs>
    <clipPath id="clip-path">
      <rect id="Rectangle_9" data-name="Rectangle 9" width="186" height="159" transform="translate(-0.318 -0.659)" fill="#8febd5"/>
    </clipPath>
  </defs>
  <g id="custom_1" data-name="custom – 1" transform="translate(0.318 0.659)" clip-path="url(#clip-path)">
    <g id="react" transform="translate(0.149 0.133)">
      <path id="Path_1" data-name="Path 1" d="M0,157.662V0H186.223V157.662Z" transform="translate(0 0)" fill="none"/>
      <g id="Group_1" data-name="Group 1">
        <path id="Path_2" data-name="Path 2" d="M96.695,115.859c-52.223,0-93.112-14.451-93.112-32.846S44.472,50.167,96.695,50.167s93.112,14.451,93.112,32.846S148.918,115.859,96.695,115.859Zm0-59.123C45.686,56.735,11.68,70.2,11.68,83.013S45.686,109.29,96.695,109.29s85.014-13.468,85.014-26.278S147.7,56.735,96.695,56.735Z" transform="translate(-3.583 -4.3)" fill="#8febd5"/>
        <path id="Path_3" data-name="Path 3" d="M57.26,170.019a20.375,20.375,0,0,1-10.787-2.681c-20.327-10.727-14.935-52.489,11.615-95.4h0c12.446-19.922,27.794-36.781,42.729-47.508,16.179-11.494,30.7-14.942,40.656-9.578,10.371,5.364,14.1,18.773,11.615,37.547C150.6,70.024,142.3,90.713,129.856,110.637s-27.794,36.781-42.729,47.508c-10.787,7.663-21.157,11.876-29.869,11.876ZM131.1,19.832c-6.637,0-15.349,3.448-24.891,10.345-14.1,10.345-28.625,26.436-40.656,45.593h0C39.42,117.53,36.931,153.545,50.621,160.824c7.053,3.831,18.668.383,31.528-8.813,14.1-10.345,28.625-26.436,40.656-45.593s19.913-38.7,22.4-55.171c2.075-15.325-.414-26.053-7.467-29.884A18.566,18.566,0,0,0,131.1,19.832Z" transform="translate(-1.058 -12.367)" fill="#8febd5"/>
        <path id="Path_4" data-name="Path 4" d="M131.486,170.019c-20.737,0-50.6-23.37-72.993-59.768-26.956-42.91-32.349-84.67-12.026-95.4h0c20.321-10.727,56.817,14.177,83.775,57.087,12.442,19.922,20.737,40.611,23.226,58.236,2.9,18.773-1.244,31.8-11.612,37.547A24.014,24.014,0,0,1,131.486,170.019ZM50.613,21.366c-13.686,7.279-11.2,43.294,14.93,85.054s58.485,61.684,72.163,54.4c7.051-3.831,9.539-14.559,7.465-29.884-2.488-16.474-10.368-36.013-22.4-55.17C96.648,34.009,64.307,14.083,50.613,21.366Z" transform="translate(-1.055 -12.366)" fill="#8febd5"/>
        <ellipse id="Ellipse_1" data-name="Ellipse 1" cx="15.518" cy="13.138" rx="15.518" ry="13.138" transform="translate(77.592 65.585)" fill="#8febd5"/>
      </g>
    </g>
  </g>
</svg>
